<svg width="748" height="172" viewBox="0 0 748 172" fill="none" xmlns="http://www.w3.org/2000/svg">
<path fill-rule="evenodd" clip-rule="evenodd" d="M374 0C580.555 0 748 38.5035 748 86C748 133.496 580.555 172 374 172C167.446 172 0 133.496 0 86C0 38.5035 167.446 0 374 0ZM376 10C193.746 10 46 42.9071 46 83.5C46 124.093 193.746 157 376 157C558.254 157 706 124.093 706 83.5C706 42.9071 558.254 10 376 10Z" fill="url(#paint0_radial_607_311)"/>
<g filter="url(#filter0_f_607_311)">
<ellipse cx="379" cy="83" rx="265" ry="59" fill="#383F3F"/>
<ellipse cx="379" cy="83" rx="265" ry="59" fill="url(#paint1_radial_607_311)"/>
<path d="M379 24.5C452.152 24.5 518.364 31.1017 566.274 41.7686C590.234 47.1029 609.589 53.4477 622.942 60.4766C629.619 63.9912 634.771 67.6653 638.248 71.4482C641.722 75.2284 643.5 79.0897 643.5 83C643.5 86.9103 641.722 90.7716 638.248 94.5518C634.771 98.3347 629.619 102.009 622.942 105.523C609.589 112.552 590.234 118.897 566.274 124.231C518.364 134.898 452.152 141.5 379 141.5C305.848 141.5 239.636 134.898 191.726 124.231C167.766 118.897 148.411 112.552 135.058 105.523C128.381 102.009 123.229 98.3347 119.752 94.5518C116.278 90.7716 114.5 86.9103 114.5 83C114.5 79.0897 116.278 75.2284 119.752 71.4482C123.229 67.6653 128.381 63.9912 135.058 60.4766C148.411 53.4477 167.766 47.1029 191.726 41.7686C239.636 31.1017 305.848 24.5 379 24.5Z" stroke="#63D706"/>
</g>
<defs>
<filter id="filter0_f_607_311" x="94" y="4" width="570" height="158" filterUnits="userSpaceOnUse" color-interpolation-filters="sRGB">
<feFlood flood-opacity="0" result="BackgroundImageFix"/>
<feBlend mode="normal" in="SourceGraphic" in2="BackgroundImageFix" result="shape"/>
<feGaussianBlur stdDeviation="10" result="effect1_foregroundBlur_607_311"/>
</filter>
<radialGradient id="paint0_radial_607_311" cx="0" cy="0" r="1" gradientUnits="userSpaceOnUse" gradientTransform="translate(374 94) rotate(-179.38) scale(739.543 62.643)">
<stop stop-color="#63D706" stop-opacity="0"/>
<stop offset="0.475962" stop-color="#63D706"/>
<stop offset="1" stop-color="#63D706" stop-opacity="0"/>
</radialGradient>
<radialGradient id="paint1_radial_607_311" cx="0" cy="0" r="1" gradientUnits="userSpaceOnUse" gradientTransform="translate(379 83) rotate(90) scale(59 265)">
<stop stop-color="#63D706"/>
<stop offset="1" stop-color="#63D706" stop-opacity="0"/>
</radialGradient>
</defs>
</svg>
