<svg width="748" height="172" viewBox="0 0 748 172" fill="none" xmlns="http://www.w3.org/2000/svg">
<path fill-rule="evenodd" clip-rule="evenodd" d="M374 0C580.555 0 748 38.5035 748 86C748 133.496 580.555 172 374 172C167.446 172 0 133.496 0 86C0 38.5035 167.446 0 374 0ZM376 10C193.746 10 46 42.9071 46 83.5C46 124.093 193.746 157 376 157C558.254 157 706 124.093 706 83.5C706 42.9071 558.254 10 376 10Z" fill="url(#paint0_radial_607_309)"/>
<path fill-rule="evenodd" clip-rule="evenodd" d="M374 0C580.555 0 748 38.5035 748 86C748 133.496 580.555 172 374 172C167.446 172 0 133.496 0 86C0 38.5035 167.446 0 374 0ZM376 10C193.746 10 46 42.9071 46 83.5C46 124.093 193.746 157 376 157C558.254 157 706 124.093 706 83.5C706 42.9071 558.254 10 376 10Z" fill="url(#paint1_radial_607_309)"/>
<g filter="url(#filter0_f_607_309)">
<ellipse cx="370" cy="86" rx="265" ry="59" fill="#212121"/>
</g>
<g filter="url(#filter1_f_607_309)">
<ellipse cx="370" cy="86" rx="265" ry="59" fill="url(#paint2_radial_607_309)"/>
<path d="M370 27.5C443.152 27.5 509.364 34.1017 557.274 44.7686C581.234 50.1029 600.589 56.4477 613.942 63.4766C620.619 66.9912 625.771 70.6653 629.248 74.4482C632.722 78.2284 634.5 82.0897 634.5 86C634.5 89.9103 632.722 93.7716 629.248 97.5518C625.771 101.335 620.619 105.009 613.942 108.523C600.589 115.552 581.234 121.897 557.274 127.231C509.364 137.898 443.152 144.5 370 144.5C296.848 144.5 230.636 137.898 182.726 127.231C158.766 121.897 139.411 115.552 126.058 108.523C119.381 105.009 114.229 101.335 110.752 97.5518C107.278 93.7716 105.5 89.9103 105.5 86C105.5 82.0897 107.278 78.2284 110.752 74.4482C114.229 70.6653 119.381 66.9912 126.058 63.4766C139.411 56.4477 158.766 50.1029 182.726 44.7686C230.636 34.1017 296.848 27.5 370 27.5Z" stroke="#63D706"/>
</g>
<defs>
<filter id="filter0_f_607_309" x="85" y="7" width="570" height="158" filterUnits="userSpaceOnUse" color-interpolation-filters="sRGB">
<feFlood flood-opacity="0" result="BackgroundImageFix"/>
<feBlend mode="normal" in="SourceGraphic" in2="BackgroundImageFix" result="shape"/>
<feGaussianBlur stdDeviation="10" result="effect1_foregroundBlur_607_309"/>
</filter>
<filter id="filter1_f_607_309" x="85" y="7" width="570" height="158" filterUnits="userSpaceOnUse" color-interpolation-filters="sRGB">
<feFlood flood-opacity="0" result="BackgroundImageFix"/>
<feBlend mode="normal" in="SourceGraphic" in2="BackgroundImageFix" result="shape"/>
<feGaussianBlur stdDeviation="10" result="effect1_foregroundBlur_607_309"/>
</filter>
<radialGradient id="paint0_radial_607_309" cx="0" cy="0" r="1" gradientUnits="userSpaceOnUse" gradientTransform="translate(374 94) rotate(-179.38) scale(739.543 62.643)">
<stop stop-color="#13D12F" stop-opacity="0"/>
<stop offset="0.475962" stop-color="#0A6B18"/>
<stop offset="1" stop-color="#0E9E24" stop-opacity="0"/>
</radialGradient>
<radialGradient id="paint1_radial_607_309" cx="0" cy="0" r="1" gradientUnits="userSpaceOnUse" gradientTransform="translate(374 94) rotate(-179.38) scale(739.543 62.643)">
<stop stop-color="#63D706" stop-opacity="0"/>
<stop offset="0.475962" stop-color="#63D706"/>
<stop offset="1" stop-color="#63D706" stop-opacity="0"/>
</radialGradient>
<radialGradient id="paint2_radial_607_309" cx="0" cy="0" r="1" gradientUnits="userSpaceOnUse" gradientTransform="translate(370 86) rotate(90) scale(59 265)">
<stop stop-color="#63D706"/>
<stop offset="1" stop-color="#63D706" stop-opacity="0"/>
</radialGradient>
</defs>
</svg>
