<svg width="622" height="207" viewBox="0 0 622 207" fill="none" xmlns="http://www.w3.org/2000/svg">
<path d="M523.408 43.3459C526.854 43.3459 529.68 44.104 531.885 45.6201C534.228 47.1363 535.813 49.1348 536.64 51.6157C537.467 54.0967 537.329 56.9222 536.227 60.0923L492.603 186H461.592L497.979 82.4207C498.806 80.0776 499.702 77.8034 500.666 75.5982C501.631 73.3929 502.803 71.1876 504.181 68.9823H438.643L437.196 43.3459H523.408Z" fill="#232323"/>
<path d="M583.433 27.566V62.0235" stroke="#232323" stroke-width="20.6745" stroke-linecap="round"/>
<path d="M611 27.566V62.0235" stroke="#232323" stroke-width="20.6745" stroke-linecap="round"/>
<path d="M44.8177 43.232C52.149 43.232 59.6186 43.3011 67.2265 43.4395C74.9728 43.4395 82.5116 43.6469 89.8428 44.0619C97.3125 44.3386 104.229 44.8227 110.592 45.5143L108.932 68.3382H57.0595C53.3247 68.3382 50.489 69.2373 48.5525 71.0355C46.6159 72.8338 45.6476 75.462 45.6476 78.9201V187.022H13.9018V72.4879C13.9018 63.6351 16.7375 56.5804 22.4088 51.324C28.0802 45.9293 35.5498 43.232 44.8177 43.232ZM17.6366 103.819H101.255V126.228H17.6366V103.819ZM184.798 41.7795C198.216 41.7795 208.729 43.1628 216.337 45.9293C223.945 48.6958 229.339 53.4681 232.521 60.2461C235.841 67.0241 237.501 76.4994 237.501 88.6721C237.501 100.845 235.91 110.32 232.728 117.098C229.685 123.876 224.636 128.648 217.582 131.415C210.527 134.043 200.982 135.357 188.948 135.357C182.585 135.357 176.36 135.081 170.274 134.527C164.188 133.974 158.516 133.282 153.26 132.452C148.004 131.622 143.508 130.792 139.773 129.962C136.038 128.994 133.479 128.095 132.096 127.265L132.719 111.496C140.88 111.496 149.318 111.496 158.032 111.496C166.885 111.496 175.6 111.496 184.176 111.496C189.709 111.358 193.997 110.666 197.04 109.421C200.222 108.176 202.435 105.894 203.68 102.574C205.063 99.2541 205.755 94.6201 205.755 88.6721C205.755 82.5858 205.063 77.8827 203.68 74.5628C202.435 71.243 200.222 68.9606 197.04 67.7157C193.997 66.3324 189.709 65.6408 184.176 65.6408C171.45 65.6408 160.522 65.71 151.393 65.8483C142.263 65.9866 136.108 66.2633 132.926 66.6782L129.814 43.8544C135.623 43.1628 141.087 42.6787 146.205 42.402C151.323 42.1253 156.856 41.987 162.804 41.987C168.891 41.8487 176.222 41.7795 184.798 41.7795ZM161.56 43.8544V187.022H129.814V43.8544H161.56ZM374.893 43.8544L335.885 178.307C335.193 180.797 333.81 182.872 331.735 184.532C329.798 186.192 327.447 187.022 324.68 187.022H295.632C292.727 187.022 290.237 186.192 288.162 184.532C286.225 182.872 284.981 180.797 284.427 178.307L245.212 43.8544H277.995L304.139 147.184C304.692 149.812 305.245 152.51 305.799 155.276C306.49 157.904 307.044 160.533 307.459 163.161H312.853C313.268 160.533 313.752 157.835 314.306 155.069C314.997 152.302 315.689 149.605 316.381 146.977L342.317 43.8544H374.893Z" fill="#232323"/>
</svg>
