<svg width="1920" height="1055" viewBox="0 0 1920 1055" fill="none" xmlns="http://www.w3.org/2000/svg">
<mask id="mask0_313_1225" style="mask-type:luminance" maskUnits="userSpaceOnUse" x="0" y="0" width="1920" height="1055">
<path d="M1920 0H0V1054.67H1920V0Z" fill="white"/>
</mask>
<g mask="url(#mask0_313_1225)">
<path d="M1326.72 711.085H593.286V343.581H1326.72V711.085ZM594.174 709.986H1325.83V344.679H594.174V709.986Z" fill="#CCCCCC" fill-opacity="0.2"/>
<path d="M1326.28 676.678H593.729V677.775H1326.28V676.678Z" fill="#CCCCCC" fill-opacity="0.2"/>
<path d="M1326.28 643.367H593.729V644.465H1326.28V643.367Z" fill="#CCCCCC" fill-opacity="0.2"/>
<path d="M1326.28 610.058H593.729V611.156H1326.28V610.058Z" fill="#CCCCCC" fill-opacity="0.2"/>
<path d="M1326.28 576.748H593.729V577.845H1326.28V576.748Z" fill="#CCCCCC" fill-opacity="0.2"/>
<path d="M1326.28 543.439H593.729V544.537H1326.28V543.439Z" fill="#CCCCCC" fill-opacity="0.2"/>
<path d="M1326.28 510.13H593.729V511.228H1326.28V510.13Z" fill="#CCCCCC" fill-opacity="0.2"/>
<path d="M1326.28 476.82H593.729V477.918H1326.28V476.82Z" fill="#CCCCCC" fill-opacity="0.2"/>
<path d="M1326.28 443.511H593.729V444.609H1326.28V443.511Z" fill="#CCCCCC" fill-opacity="0.2"/>
<path d="M1326.28 410.2H593.729V411.298H1326.28V410.2Z" fill="#CCCCCC" fill-opacity="0.2"/>
<path d="M1326.28 376.892H593.729V377.989H1326.28V376.892Z" fill="#CCCCCC" fill-opacity="0.2"/>
<path d="M1280.93 344.13H1280.05V710.536H1280.93V344.13Z" fill="#CCCCCC" fill-opacity="0.2"/>
<path d="M1235.15 344.13H1234.27V710.536H1235.15V344.13Z" fill="#CCCCCC" fill-opacity="0.2"/>
<path d="M1189.37 344.13H1188.48V710.536H1189.37V344.13Z" fill="#CCCCCC" fill-opacity="0.2"/>
<path d="M1143.58 344.13H1142.69V710.536H1143.58V344.13Z" fill="#CCCCCC" fill-opacity="0.2"/>
<path d="M1097.8 344.13H1096.91V710.536H1097.8V344.13Z" fill="#CCCCCC" fill-opacity="0.2"/>
<path d="M1052.02 344.13H1051.13V710.536H1052.02V344.13Z" fill="#CCCCCC" fill-opacity="0.2"/>
<path d="M1006.23 344.13H1005.34V710.536H1006.23V344.13Z" fill="#CCCCCC" fill-opacity="0.2"/>
<path d="M960.445 344.13H959.557V710.536H960.445V344.13Z" fill="#CCCCCC" fill-opacity="0.2"/>
<path d="M914.664 344.13H913.776V710.536H914.664V344.13Z" fill="#CCCCCC" fill-opacity="0.2"/>
<path d="M868.878 344.13H867.99V710.536H868.878V344.13Z" fill="#CCCCCC" fill-opacity="0.2"/>
<path d="M823.091 344.13H822.203V710.536H823.091V344.13Z" fill="#CCCCCC" fill-opacity="0.2"/>
<path d="M777.31 344.13H776.422V710.536H777.31V344.13Z" fill="#CCCCCC" fill-opacity="0.2"/>
<path d="M731.529 344.13H730.641V710.536H731.529V344.13Z" fill="#CCCCCC" fill-opacity="0.2"/>
<path d="M685.742 344.13H684.854V710.536H685.742V344.13Z" fill="#CCCCCC" fill-opacity="0.2"/>
<path d="M639.956 344.13H639.068V710.536H639.956V344.13Z" fill="#CCCCCC" fill-opacity="0.2"/>
<path d="M1326.35 344.679L593.562 344.641L-161.844 -22.8247H2081.84L2079.66 -21.7645L1326.35 344.679ZM593.808 343.581H1326.19L2077.15 -21.727H-157.159L593.808 343.581Z" fill="#CCCCCC" fill-opacity="0.2"/>
<path d="M1350.13 331.974H569.859V333.071H1350.13V331.974Z" fill="#CCCCCC" fill-opacity="0.2"/>
<path d="M1377.32 318.748H542.672V319.845H1377.32V318.748Z" fill="#CCCCCC" fill-opacity="0.2"/>
<path d="M1408.59 303.54H511.412V304.638H1408.59V303.54Z" fill="#CCCCCC" fill-opacity="0.2"/>
<path d="M1444.91 285.869H475.083V286.966H1444.91V285.869Z" fill="#CCCCCC" fill-opacity="0.2"/>
<path d="M1487.64 265.085H432.359V266.183H1487.64V265.085Z" fill="#CCCCCC" fill-opacity="0.2"/>
<path d="M1538.62 240.282H381.37V241.38H1538.62V240.282Z" fill="#CCCCCC" fill-opacity="0.2"/>
<path d="M1600.52 210.176H319.479V211.273H1600.52V210.176Z" fill="#CCCCCC" fill-opacity="0.2"/>
<path d="M1677.23 172.857H242.76V173.955H1677.23V172.857Z" fill="#CCCCCC" fill-opacity="0.2"/>
<path d="M1774.83 125.381H145.167V126.479H1774.83V125.381Z" fill="#CCCCCC" fill-opacity="0.2"/>
<path d="M1903.17 62.9492H16.8281V64.0469H1903.17V62.9492Z" fill="#CCCCCC" fill-opacity="0.2"/>
<path d="M1280.67 344.631L1280.31 343.629L1939.38 -22.7764L1939.74 -21.7753L1280.67 344.631Z" fill="#CCCCCC" fill-opacity="0.2"/>
<path d="M1234.91 344.616L1234.49 343.644L1799.41 -22.7622L1799.83 -21.7895L1234.91 344.616Z" fill="#CCCCCC" fill-opacity="0.2"/>
<path d="M1189.16 344.595L1188.68 343.665L1659.45 -22.7407L1659.92 -21.8107L1189.16 344.595Z" fill="#CCCCCC" fill-opacity="0.2"/>
<path d="M1143.41 344.561L1142.86 343.699L1519.47 -22.707L1520.02 -21.8448L1143.41 344.561Z" fill="#CCCCCC" fill-opacity="0.2"/>
<path d="M1097.67 344.509L1097.03 343.751L1379.49 -22.6543L1380.13 -21.8966L1097.67 344.509Z" fill="#CCCCCC" fill-opacity="0.2"/>
<path d="M1051.94 344.425L1051.19 343.835L1239.5 -22.5708L1240.25 -21.9808L1051.94 344.425Z" fill="#CCCCCC" fill-opacity="0.2"/>
<path d="M1006.21 344.296L1005.36 343.964L1099.51 -22.4419L1100.36 -22.1098L1006.21 344.296Z" fill="#CCCCCC" fill-opacity="0.2"/>
<path d="M960.44 -22.2754H959.552V344.131H960.44V-22.2754Z" fill="#CCCCCC" fill-opacity="0.2"/>
<path d="M913.789 344.296L819.635 -22.1098L820.483 -22.4419L914.637 343.964L913.789 344.296Z" fill="#CCCCCC" fill-opacity="0.2"/>
<path d="M868.056 344.425L679.75 -21.9808L680.499 -22.5708L868.805 343.835L868.056 344.425Z" fill="#CCCCCC" fill-opacity="0.2"/>
<path d="M822.325 344.509L539.865 -21.8966L540.507 -22.6543L822.967 343.751L822.325 344.509Z" fill="#CCCCCC" fill-opacity="0.2"/>
<path d="M776.587 344.561L399.974 -21.8448L400.524 -22.707L777.137 343.699L776.587 344.561Z" fill="#CCCCCC" fill-opacity="0.2"/>
<path d="M730.838 344.595L260.073 -21.8107L260.548 -22.7407L731.313 343.665L730.838 344.595Z" fill="#CCCCCC" fill-opacity="0.2"/>
<path d="M685.086 344.616L120.167 -21.7895L120.58 -22.7622L685.499 343.644L685.086 344.616Z" fill="#CCCCCC" fill-opacity="0.2"/>
<path d="M639.326 344.631L-19.7446 -21.7753L-19.3806 -22.7764L639.691 343.629L639.326 344.631Z" fill="#CCCCCC" fill-opacity="0.2"/>
<path d="M2059.27 1067.99L2058.66 1067.7L1325.83 710.909V343.756L1326.11 343.619L2059.27 -13.3242V1067.99ZM1326.72 710.162L2058.38 1066.38V-11.7115L1326.72 344.503V710.162Z" fill="#CCCCCC" fill-opacity="0.2"/>
<path d="M2058.69 969.553L1326.14 677.749L1326.41 676.705L2058.96 968.509L2058.69 969.553Z" fill="#CCCCCC" fill-opacity="0.2"/>
<path d="M2058.71 871.407L1326.17 644.449L1326.38 643.383L2058.93 870.341L2058.71 871.407Z" fill="#CCCCCC" fill-opacity="0.2"/>
<path d="M2058.75 773.261L1326.2 611.148L1326.35 610.068L2058.9 772.181L2058.75 773.261Z" fill="#CCCCCC" fill-opacity="0.2"/>
<path d="M2058.78 675.111L1326.23 577.842L1326.32 576.751L2058.87 674.021L2058.78 675.111Z" fill="#CCCCCC" fill-opacity="0.2"/>
<path d="M2058.81 576.959L1326.26 544.537L1326.29 543.439L2058.84 575.861L2058.81 576.959Z" fill="#CCCCCC" fill-opacity="0.2"/>
<path d="M1326.29 511.228L1326.26 510.131L2058.81 477.707L2058.84 478.805L1326.29 511.228Z" fill="#CCCCCC" fill-opacity="0.2"/>
<path d="M1326.32 477.914L1326.23 476.823L2058.78 379.556L2058.87 380.647L1326.32 477.914Z" fill="#CCCCCC" fill-opacity="0.2"/>
<path d="M1326.35 444.599L1326.2 443.519L2058.75 281.406L2058.9 282.486L1326.35 444.599Z" fill="#CCCCCC" fill-opacity="0.2"/>
<path d="M1326.38 411.282L1326.17 410.216L2058.71 183.257L2058.93 184.323L1326.38 411.282Z" fill="#CCCCCC" fill-opacity="0.2"/>
<path d="M1326.41 377.963L1326.14 376.919L2058.69 85.1143L2058.96 86.1587L1326.41 377.963Z" fill="#CCCCCC" fill-opacity="0.2"/>
<path d="M1842.25 93.1396H1841.36V961.527H1842.25V93.1396Z" fill="#CCCCCC" fill-opacity="0.2"/>
<path d="M1762.76 131.841H1761.87V922.825H1762.76V131.841Z" fill="#CCCCCC" fill-opacity="0.2"/>
<path d="M1696.27 164.209H1695.39V890.458H1696.27V164.209Z" fill="#CCCCCC" fill-opacity="0.2"/>
<path d="M1639.85 191.68H1638.96V862.987H1639.85V191.68Z" fill="#CCCCCC" fill-opacity="0.2"/>
<path d="M1591.37 215.287H1590.48V839.381H1591.37V215.287Z" fill="#CCCCCC" fill-opacity="0.2"/>
<path d="M1549.25 235.789H1548.36V818.876H1549.25V235.789Z" fill="#CCCCCC" fill-opacity="0.2"/>
<path d="M1512.33 253.764H1511.44V800.9H1512.33V253.764Z" fill="#CCCCCC" fill-opacity="0.2"/>
<path d="M1479.7 269.654H1478.81V785.014H1479.7V269.654Z" fill="#CCCCCC" fill-opacity="0.2"/>
<path d="M1450.64 283.796H1449.76V770.87H1450.64V283.796Z" fill="#CCCCCC" fill-opacity="0.2"/>
<path d="M1424.62 296.468H1423.73V758.199H1424.62V296.468Z" fill="#CCCCCC" fill-opacity="0.2"/>
<path d="M1401.16 307.886H1400.28V746.78H1401.16V307.886Z" fill="#CCCCCC" fill-opacity="0.2"/>
<path d="M1379.92 318.229H1379.03V736.438H1379.92V318.229Z" fill="#CCCCCC" fill-opacity="0.2"/>
<path d="M1360.59 327.64H1359.7V727.027H1360.59V327.64Z" fill="#CCCCCC" fill-opacity="0.2"/>
<path d="M1342.92 336.24H1342.04V718.426H1342.92V336.24Z" fill="#CCCCCC" fill-opacity="0.2"/>
<path d="M2081.84 1077.49H-161.844L-159.665 1076.43L593.638 709.988L1326.43 710.025L2081.84 1077.49ZM-157.16 1076.39H2077.15L1326.19 711.085H593.805L-157.16 1076.39Z" fill="#CCCCCC" fill-opacity="0.2"/>
<path d="M1350.13 721.595H569.859V722.693H1350.13V721.595Z" fill="#CCCCCC" fill-opacity="0.2"/>
<path d="M1377.32 734.822H542.672V735.92H1377.32V734.822Z" fill="#CCCCCC" fill-opacity="0.2"/>
<path d="M1408.59 750.029H511.412V751.127H1408.59V750.029Z" fill="#CCCCCC" fill-opacity="0.2"/>
<path d="M1444.91 767.699H475.083V768.797H1444.91V767.699Z" fill="#CCCCCC" fill-opacity="0.2"/>
<path d="M1487.64 788.484H432.359V789.582H1487.64V788.484Z" fill="#CCCCCC" fill-opacity="0.2"/>
<path d="M1538.62 813.286H381.37V814.384H1538.62V813.286Z" fill="#CCCCCC" fill-opacity="0.2"/>
<path d="M1600.52 843.394H319.479V844.492H1600.52V843.394Z" fill="#CCCCCC" fill-opacity="0.2"/>
<path d="M1677.23 880.713H242.76V881.811H1677.23V880.713Z" fill="#CCCCCC" fill-opacity="0.2"/>
<path d="M1774.83 928.189H145.167V929.287H1774.83V928.189Z" fill="#CCCCCC" fill-opacity="0.2"/>
<path d="M1903.17 990.619H16.8281V991.717H1903.17V990.619Z" fill="#CCCCCC" fill-opacity="0.2"/>
<path d="M-19.3806 1077.44L-19.7446 1076.44L639.326 710.035L639.691 711.036L-19.3806 1077.44Z" fill="#CCCCCC" fill-opacity="0.2"/>
<path d="M120.58 1077.43L120.167 1076.46L685.086 710.05L685.499 711.023L120.58 1077.43Z" fill="#CCCCCC" fill-opacity="0.2"/>
<path d="M260.548 1077.41L260.073 1076.48L730.838 710.071L731.313 711.001L260.548 1077.41Z" fill="#CCCCCC" fill-opacity="0.2"/>
<path d="M400.524 1077.37L399.974 1076.51L776.587 710.105L777.137 710.967L400.524 1077.37Z" fill="#CCCCCC" fill-opacity="0.2"/>
<path d="M540.507 1077.32L539.865 1076.56L822.325 710.157L822.967 710.915L540.507 1077.32Z" fill="#CCCCCC" fill-opacity="0.2"/>
<path d="M680.499 1077.24L679.75 1076.65L868.056 710.241L868.805 710.831L680.499 1077.24Z" fill="#CCCCCC" fill-opacity="0.2"/>
<path d="M820.483 1077.11L819.635 1076.78L913.789 710.37L914.637 710.703L820.483 1077.11Z" fill="#CCCCCC" fill-opacity="0.2"/>
<path d="M960.44 710.536H959.552V1076.94H960.44V710.536Z" fill="#CCCCCC" fill-opacity="0.2"/>
<path d="M1099.51 1077.11L1005.36 710.703L1006.21 710.37L1100.36 1076.78L1099.51 1077.11Z" fill="#CCCCCC" fill-opacity="0.2"/>
<path d="M1239.5 1077.24L1051.19 710.831L1051.94 710.241L1240.25 1076.65L1239.5 1077.24Z" fill="#CCCCCC" fill-opacity="0.2"/>
<path d="M1379.49 1077.32L1097.03 710.915L1097.67 710.157L1380.13 1076.56L1379.49 1077.32Z" fill="#CCCCCC" fill-opacity="0.2"/>
<path d="M1519.47 1077.37L1142.86 710.967L1143.41 710.105L1520.02 1076.51L1519.47 1077.37Z" fill="#CCCCCC" fill-opacity="0.2"/>
<path d="M1659.45 1077.41L1188.68 711.001L1189.16 710.071L1659.92 1076.48L1659.45 1077.41Z" fill="#CCCCCC" fill-opacity="0.2"/>
<path d="M1799.41 1077.43L1234.49 711.023L1234.91 710.05L1799.83 1076.46L1799.41 1077.43Z" fill="#CCCCCC" fill-opacity="0.2"/>
<path d="M1939.38 1077.44L1280.31 711.036L1280.67 710.035L1939.74 1076.44L1939.38 1077.44Z" fill="#CCCCCC" fill-opacity="0.2"/>
<path d="M-139.26 1067.99V-13.3242L-138.653 -13.0296L594.176 343.756V710.909L593.895 711.047L-139.26 1067.99ZM-138.371 -11.7115V1066.38L593.288 710.162V344.503L-138.371 -11.7115Z" fill="#CCCCCC" fill-opacity="0.2"/>
<path d="M593.594 377.963L-138.953 86.1587L-138.681 85.1143L593.866 376.919L593.594 377.963Z" fill="#CCCCCC" fill-opacity="0.2"/>
<path d="M593.62 411.282L-138.927 184.323L-138.71 183.257L593.838 410.216L593.62 411.282Z" fill="#CCCCCC" fill-opacity="0.2"/>
<path d="M593.652 444.599L-138.896 282.486L-138.74 281.406L593.808 443.519L593.652 444.599Z" fill="#CCCCCC" fill-opacity="0.2"/>
<path d="M593.683 477.914L-138.865 380.647L-138.77 379.556L593.778 476.823L593.683 477.914Z" fill="#CCCCCC" fill-opacity="0.2"/>
<path d="M593.714 511.228L-138.833 478.805L-138.801 477.707L593.747 510.131L593.714 511.228Z" fill="#CCCCCC" fill-opacity="0.2"/>
<path d="M-138.801 576.959L-138.833 575.861L593.714 543.439L593.747 544.537L-138.801 576.959Z" fill="#CCCCCC" fill-opacity="0.2"/>
<path d="M-138.77 675.111L-138.865 674.021L593.683 576.751L593.778 577.842L-138.77 675.111Z" fill="#CCCCCC" fill-opacity="0.2"/>
<path d="M-138.74 773.261L-138.896 772.181L593.652 610.068L593.808 611.148L-138.74 773.261Z" fill="#CCCCCC" fill-opacity="0.2"/>
<path d="M-138.71 871.407L-138.927 870.341L593.62 643.383L593.838 644.449L-138.71 871.407Z" fill="#CCCCCC" fill-opacity="0.2"/>
<path d="M-138.681 969.553L-138.953 968.509L593.594 676.705L593.866 677.749L-138.681 969.553Z" fill="#CCCCCC" fill-opacity="0.2"/>
<path d="M78.6435 93.1396H77.7554V961.527H78.6435V93.1396Z" fill="#CCCCCC" fill-opacity="0.2"/>
<path d="M158.138 131.841H157.25V922.825H158.138V131.841Z" fill="#CCCCCC" fill-opacity="0.2"/>
<path d="M224.622 164.209H223.734V890.458H224.622V164.209Z" fill="#CCCCCC" fill-opacity="0.2"/>
<path d="M281.044 191.68H280.156V862.987H281.044V191.68Z" fill="#CCCCCC" fill-opacity="0.2"/>
<path d="M329.529 215.287H328.641V839.381H329.529V215.287Z" fill="#CCCCCC" fill-opacity="0.2"/>
<path d="M371.643 235.789H370.755V818.876H371.643V235.789Z" fill="#CCCCCC" fill-opacity="0.2"/>
<path d="M408.565 253.764H407.677V800.9H408.565V253.764Z" fill="#CCCCCC" fill-opacity="0.2"/>
<path d="M441.201 269.654H440.312V785.014H441.201V269.654Z" fill="#CCCCCC" fill-opacity="0.2"/>
<path d="M470.247 283.796H469.359V770.87H470.247V283.796Z" fill="#CCCCCC" fill-opacity="0.2"/>
<path d="M496.273 296.468H495.385V758.199H496.273V296.468Z" fill="#CCCCCC" fill-opacity="0.2"/>
<path d="M519.732 307.886H518.844V746.78H519.732V307.886Z" fill="#CCCCCC" fill-opacity="0.2"/>
<path d="M540.972 318.229H540.083V736.438H540.972V318.229Z" fill="#CCCCCC" fill-opacity="0.2"/>
<path d="M560.299 327.64H559.411V727.027H560.299V327.64Z" fill="#CCCCCC" fill-opacity="0.2"/>
<path d="M577.966 336.24H577.078V718.426H577.966V336.24Z" fill="#CCCCCC" fill-opacity="0.2"/>
</g>
</svg>
