<svg width="1868" height="817" viewBox="0 0 1868 817" fill="none" xmlns="http://www.w3.org/2000/svg">
<g opacity="0.2">
<mask id="mask0_313_1140" style="mask-type:luminance" maskUnits="userSpaceOnUse" x="0" y="0" width="1868" height="800">
<path d="M1868 0H0V799.728H1868V0Z" fill="white"/>
</mask>
<g mask="url(#mask0_313_1140)">
<path d="M-392.675 926.093C-387.882 860.428 -382.886 796.232 -377.825 735.285C-372.752 674.196 -367.461 614.537 -362.099 557.961C-356.749 501.528 -351.175 446.551 -345.532 394.56C-339.909 342.779 -334.054 292.463 -328.131 245.008C-322.247 197.88 -316.119 152.159 -309.917 109.115C-303.776 66.502 -297.381 25.2692 -290.911 -13.4423C-284.528 -51.6291 -277.88 -88.5173 -271.149 -123.077C-264.532 -157.045 -257.64 -189.757 -250.666 -220.302C-243.824 -250.269 -236.707 -279.005 -229.513 -305.716C-222.475 -331.85 -215.151 -356.833 -207.745 -379.977C-200.524 -402.538 -193.015 -424.012 -185.426 -443.801C-178.05 -463.028 -170.379 -481.244 -162.627 -497.941C-155.123 -514.095 -147.316 -529.315 -139.424 -543.179C-131.818 -556.532 -123.905 -569.024 -115.903 -580.306C-108.223 -591.133 -100.231 -601.163 -92.1547 -610.119C-77.0675 -626.831 -60.9775 -640.557 -44.3304 -650.912C-29.3035 -660.247 -13.2749 -667.177 3.30972 -671.51C17.904 -675.312 33.4581 -677.24 49.5514 -677.24H50.0118C76.5687 -677.16 105.201 -672.032 137.545 -661.569C190.197 -644.491 237.962 -619.036 269.569 -602.19L270.292 -601.805C299.648 -586.153 317.86 -575.906 319.971 -574.716C320.958 -572.734 327.939 -558.776 340.263 -535.441C359.064 -499.846 377.657 -466.744 397.107 -434.245C424.754 -388.058 453.381 -344.585 482.191 -305.033C498.573 -282.55 515.349 -260.88 532.053 -240.624C549.399 -219.593 567.127 -199.53 584.743 -180.995C602.52 -162.297 620.645 -144.665 638.616 -128.591C656.302 -112.777 674.276 -98.0788 692.039 -84.9056C709.127 -72.2376 726.439 -60.669 743.494 -50.5187C759.539 -40.9749 775.746 -32.4554 791.665 -25.1979C806.305 -18.5267 821.056 -12.7607 835.507 -8.06061C848.488 -3.84363 861.532 -0.385193 874.278 2.21985C885.406 4.4939 896.594 6.1748 907.529 7.21747C916.763 8.09521 926.036 8.54169 935.091 8.54169C944.146 8.54169 953.418 8.09521 962.652 7.21747C973.587 6.17419 984.774 4.4939 995.903 2.21985C1008.65 -0.385193 1021.69 -3.84363 1034.67 -8.06061C1049.12 -12.7613 1063.88 -18.5273 1078.52 -25.1979C1094.43 -32.4548 1110.64 -40.9749 1126.69 -50.5187C1143.74 -60.6672 1161.05 -72.2358 1178.14 -84.9056C1195.91 -98.0788 1213.88 -112.777 1231.57 -128.591C1249.54 -144.667 1267.67 -162.299 1285.44 -180.995C1303.05 -199.532 1320.78 -219.593 1338.13 -240.624C1354.84 -260.885 1371.61 -282.556 1387.99 -305.035C1416.8 -344.587 1445.43 -388.059 1473.07 -434.246C1492.52 -466.744 1511.12 -499.846 1529.92 -535.441C1542.24 -558.774 1549.22 -572.732 1550.21 -574.715C1552.32 -575.903 1570.53 -586.151 1599.89 -601.805L1600.62 -602.196C1632.23 -619.04 1679.99 -644.494 1732.64 -661.57C1764.98 -672.033 1793.61 -677.161 1820.17 -677.241C1836.38 -677.196 1852.14 -675.35 1866.87 -671.51C1883.46 -667.178 1899.48 -660.248 1914.51 -650.912C1931.16 -640.557 1947.25 -626.832 1962.33 -610.12C1970.41 -601.163 1978.4 -591.134 1986.08 -580.307C1994.09 -569.024 2002 -556.533 2009.6 -543.179C2017.5 -529.309 2025.31 -514.09 2032.81 -497.941C2040.56 -481.235 2048.24 -463.019 2055.61 -443.801C2063.2 -424.012 2070.7 -402.538 2077.93 -379.977C2085.33 -356.834 2092.66 -331.85 2099.69 -305.717C2106.89 -279.005 2114 -250.27 2120.85 -220.302C2127.82 -189.757 2134.71 -157.046 2141.33 -123.077C2148.06 -88.5179 2154.71 -51.6298 2161.09 -13.443C2167.56 25.2685 2173.96 66.5013 2180.1 109.114C2186.3 152.121 2192.42 197.844 2198.31 245.008C2204.24 292.462 2210.09 342.778 2215.71 394.559C2221.36 446.602 2226.94 501.579 2232.28 557.961C2237.64 614.455 2242.93 674.116 2248.01 735.285C2253.07 796.23 2258.06 860.426 2262.86 926.093H2264.34C2259.54 860.356 2254.54 796.09 2249.48 735.082C2244.39 673.902 2239.1 614.234 2233.75 557.73C2228.4 501.339 2222.83 446.35 2217.18 394.296C2211.55 342.504 2205.7 292.175 2199.77 244.708C2193.88 197.527 2187.75 151.791 2181.55 108.768C2175.41 66.1385 2169.01 24.8868 2162.54 -13.8436C2156.15 -52.0511 2149.5 -88.9595 2142.76 -123.541C2136.14 -157.532 2129.24 -190.27 2122.27 -220.841C2115.42 -250.834 2108.29 -279.6 2101.09 -306.341C2094.04 -332.507 2086.71 -357.526 2079.29 -380.702C2072.06 -403.304 2064.54 -424.816 2056.93 -444.644C2049.54 -463.909 2041.85 -482.167 2034.08 -498.918C2026.55 -515.117 2018.72 -530.388 2010.8 -544.305C2003.16 -557.713 1995.21 -570.258 1987.18 -581.588C1979.46 -592.473 1971.42 -602.556 1963.3 -611.561C1948.12 -628.383 1931.92 -642.198 1915.16 -652.625C1900.02 -662.029 1883.87 -669.011 1867.17 -673.375C1852.34 -677.238 1836.45 -679.167 1820.17 -679.143C1793.49 -679.063 1764.74 -673.916 1732.28 -663.413C1679.52 -646.305 1631.7 -620.817 1600.06 -603.953L1599.32 -603.562C1568.2 -586.969 1549.6 -576.446 1549.41 -576.341L1549.21 -576.224L1549.09 -575.983C1549.02 -575.841 1541.95 -561.608 1528.7 -536.511C1509.91 -500.947 1491.33 -467.875 1471.9 -435.407C1444.29 -389.269 1415.69 -345.842 1386.91 -306.335C1370.56 -283.885 1353.8 -262.242 1337.12 -242.009C1319.8 -221.01 1302.09 -200.977 1284.5 -182.467C1266.76 -163.804 1248.67 -146.203 1230.72 -130.153C1213.07 -114.371 1195.13 -99.6999 1177.41 -86.5548C1160.35 -73.913 1143.08 -62.3707 1126.07 -52.2466C1110.06 -42.7267 1093.9 -34.2292 1078.02 -26.993C1063.43 -20.3401 1048.72 -14.5906 1034.31 -9.90515C1021.37 -5.70282 1008.37 -2.2561 995.673 0.339844C984.584 2.60651 973.438 4.28131 962.544 5.31909C953.346 6.19495 944.11 6.63904 935.091 6.63904C926.072 6.63904 916.836 6.19495 907.637 5.31909C896.743 4.28131 885.598 2.60651 874.509 0.339844C861.807 -2.2561 848.807 -5.70282 835.869 -9.90515C821.462 -14.5906 806.755 -20.3395 792.158 -26.993C776.282 -34.2292 760.117 -42.7267 744.114 -52.2466C727.098 -62.3725 709.826 -73.9155 692.776 -86.5548C675.049 -99.7005 657.11 -114.371 639.458 -130.153C621.519 -146.198 603.424 -163.801 585.677 -182.467C568.088 -200.975 550.386 -221.008 533.065 -242.009C516.384 -262.237 499.629 -283.88 483.269 -306.335C454.49 -345.842 425.895 -389.267 398.278 -435.407C378.846 -467.875 360.268 -500.947 341.485 -536.511C328.23 -561.608 321.165 -575.841 321.095 -575.983L320.974 -576.224L320.77 -576.341C320.585 -576.445 301.978 -586.969 270.858 -603.562L270.134 -603.947C238.487 -620.815 190.662 -646.302 137.905 -663.412C105.443 -673.916 76.6931 -679.062 50.015 -679.142C33.6516 -679.059 17.8453 -677.24 3.01624 -673.374C-13.6896 -669.01 -29.835 -662.029 -44.9734 -652.624C-61.7368 -642.197 -77.9338 -628.382 -93.1184 -611.561C-101.241 -602.556 -109.274 -592.472 -116.995 -581.588C-125.032 -570.257 -132.979 -557.712 -140.617 -544.304C-148.536 -530.393 -156.368 -515.124 -163.895 -498.918C-171.667 -482.176 -179.358 -463.915 -186.751 -444.643C-194.354 -424.816 -201.878 -403.302 -209.112 -380.701C-216.528 -357.526 -223.861 -332.507 -230.91 -306.34C-238.11 -279.599 -245.234 -250.833 -252.084 -220.84C-259.063 -190.269 -265.958 -157.531 -272.581 -123.541C-279.316 -88.9589 -285.969 -52.0505 -292.355 -13.843C-298.828 24.8874 -305.225 66.1385 -311.369 108.768C-317.574 151.827 -323.703 197.565 -329.589 244.709C-335.514 292.176 -341.37 342.505 -346.994 394.297C-352.638 446.298 -358.214 501.285 -363.565 557.731C-368.928 614.316 -374.219 673.984 -379.292 735.082C-384.358 796.093 -389.36 860.359 -394.158 926.093H-392.675Z" fill="#CCCCCC" fill-opacity="0.2"/>
<path d="M1503.68 -422.232L1504.1 -422.314C1531.86 -427.624 1573.81 -435.651 1621.47 -437.008C1650.65 -437.826 1676.76 -435.731 1701.3 -430.606C1733.11 -423.944 1762.88 -411.745 1789.77 -394.349C1805.65 -384.06 1821.11 -371.609 1835.71 -357.345C1851.7 -341.721 1867.25 -323.341 1881.94 -302.721C1897.8 -280.443 1913.23 -254.737 1927.81 -226.319C1935.46 -211.379 1943.07 -195.335 1950.41 -178.634C1957.95 -161.453 1965.45 -143.054 1972.69 -123.943C1980.1 -104.347 1987.47 -83.4276 1994.57 -61.7642C2001.84 -39.6177 2009.05 -16.0279 2016.01 8.34982C2023.1 33.2021 2030.14 59.5937 2036.93 86.794C2043.83 114.45 2050.67 143.76 2057.28 173.906C2063.97 204.446 2070.61 236.761 2077.01 269.958C2083.48 303.469 2089.9 338.854 2096.09 375.13C2102.32 411.596 2108.51 450.081 2114.48 489.515C2120.48 529.069 2126.42 570.651 2132.15 613.104C2137.88 655.578 2143.58 700.21 2149.07 745.763C2154.55 791.155 2159.99 838.756 2165.24 887.244C2166.62 900.033 2168 913.005 2169.38 926.094H2170.87C2169.48 912.917 2168.09 899.855 2166.7 886.98C2161.45 838.485 2156.01 790.872 2150.53 745.469C2145.04 699.907 2139.34 655.263 2133.61 612.776C2127.87 570.311 2121.93 528.718 2115.93 489.151C2109.95 449.701 2103.76 411.201 2097.54 374.721C2091.34 338.428 2084.92 303.026 2078.45 269.497C2072.04 236.283 2065.39 203.948 2058.7 173.389C2052.09 143.221 2045.24 113.89 2038.33 86.2095C2031.54 58.9848 2024.49 32.5675 2017.39 7.69138C2010.42 -16.7145 2003.2 -40.3318 1995.93 -62.5045C1988.82 -84.1996 1981.44 -105.15 1974.01 -124.778C1966.76 -143.922 1959.25 -162.357 1951.69 -179.571C1944.34 -196.311 1936.72 -212.392 1929.04 -227.368C1914.42 -255.871 1898.94 -281.656 1883.03 -304.008C1868.28 -324.714 1852.66 -343.168 1836.6 -358.862C1821.93 -373.198 1806.39 -385.71 1790.43 -396.051C1763.4 -413.534 1733.49 -425.793 1701.54 -432.485C1676.91 -437.626 1650.71 -439.714 1621.44 -438.912C1573.68 -437.553 1531.68 -429.516 1503.88 -424.196L1503.45 -424.116C1476.22 -418.898 1460.13 -415.382 1459.97 -415.349L1460.22 -413.471C1460.38 -413.506 1476.46 -417.018 1503.68 -422.232Z" fill="#CCCCCC" fill-opacity="0.2"/>
<path d="M1412.94 -281.624C1436.19 -278.03 1471.31 -272.597 1511.78 -261.58C1537.07 -254.686 1559.86 -246.678 1581.46 -237.098C1609.97 -224.432 1635.8 -209.295 1660.42 -190.823C1674.8 -180.023 1688.88 -167.934 1702.27 -154.889C1716.96 -140.563 1731.35 -124.576 1745.02 -107.374C1759.83 -88.732 1774.34 -67.9983 1788.15 -45.7437C1802.9 -21.9438 1817.36 4.40503 1831.1 32.5704C1845.62 62.3329 1859.84 95.1165 1873.36 130.011C1880.35 148.046 1887.32 167.077 1894.07 186.574C1900.95 206.417 1907.8 227.305 1914.43 248.659C1921.16 270.343 1927.87 293.146 1934.37 316.434C1940.95 340.003 1947.51 364.757 1953.86 390.01C1960.26 415.469 1966.64 442.193 1972.83 469.438C1979.05 496.798 1985.25 525.484 1991.26 554.698C1997.28 583.962 2003.28 614.581 2009.09 645.702C2014.9 676.783 2020.69 709.273 2026.31 742.271C2031.89 775.107 2037.47 809.38 2042.87 844.139C2047 870.718 2051.12 898.196 2055.17 926.094H2056.68C2052.61 898.068 2048.47 870.464 2044.32 843.763C2038.91 808.995 2033.34 774.711 2027.75 741.861C2022.13 708.851 2016.34 676.349 2010.53 645.256C2004.71 614.121 1998.71 583.488 1992.69 554.211C1986.67 524.98 1980.47 496.277 1974.25 468.902C1968.06 441.64 1961.67 414.899 1955.26 389.423C1948.91 364.151 1942.35 339.377 1935.77 315.791C1929.26 292.48 1922.54 269.655 1915.8 247.953C1909.16 226.574 1902.3 205.662 1895.42 185.797C1888.66 166.276 1881.68 147.221 1874.68 129.16C1861.14 94.2114 1846.9 61.3716 1832.35 31.5552C1818.58 3.33246 1804.09 -23.0756 1789.3 -46.9336C1775.46 -69.2456 1760.91 -90.041 1746.06 -108.735C1732.34 -125.993 1717.91 -142.032 1703.16 -156.406C1689.73 -169.498 1675.6 -181.63 1661.17 -192.466C1636.46 -211.004 1610.55 -226.191 1581.94 -238.898C1560.28 -248.503 1537.43 -256.532 1512.08 -263.443C1471.55 -274.477 1436.39 -279.915 1413.12 -283.515L1411.29 -283.796C1388.26 -287.358 1374.79 -289.221 1374.66 -289.24L1374.5 -287.347C1374.64 -287.329 1388.09 -285.465 1411.12 -281.907L1412.94 -281.624Z" fill="#CCCCCC" fill-opacity="0.2"/>
<path d="M1406.61 -128.515C1437.27 -109.871 1483.58 -79.9131 1531.52 -35.1925C1557.31 -11.1068 1581.95 15.7942 1604.73 44.7591C1617.73 61.2868 1630.53 78.9952 1642.78 97.3877C1655.91 117.117 1668.85 138.291 1681.23 160.325C1694.35 183.675 1707.27 208.765 1719.65 234.896C1732.61 262.245 1745.38 291.624 1757.62 322.218C1770.27 353.857 1782.75 387.786 1794.7 423.063C1806.91 459.09 1818.96 497.658 1830.52 537.698C1842.16 578.06 1853.66 621.139 1864.69 665.736C1875.65 710.074 1886.49 757.264 1896.9 806.001C1905.1 844.387 1913.22 884.675 1921.14 926.093H1922.66C1914.71 884.497 1906.55 844.038 1898.32 805.496C1887.91 756.736 1877.07 709.52 1866.1 665.159C1855.06 620.534 1843.56 577.426 1831.9 537.036C1820.34 496.963 1808.28 458.361 1796.06 422.301C1784.09 386.988 1771.6 353.021 1758.93 321.344C1746.68 290.712 1733.89 261.293 1720.92 233.903C1708.51 207.731 1695.57 182.6 1682.43 159.209C1670.02 137.133 1657.06 115.916 1643.9 96.149C1631.62 77.7137 1618.8 59.9681 1605.77 43.405C1582.93 14.3692 1558.24 -12.5928 1532.39 -36.7366C1484.35 -81.55 1437.96 -111.562 1407.24 -130.238C1375.83 -149.322 1349.34 -163.537 1330 -173.914L1294.82 -192.812L1294.25 -191.053L1329.43 -172.155C1348.76 -161.784 1375.23 -147.58 1406.61 -128.515Z" fill="#CCCCCC" fill-opacity="0.2"/>
<path d="M1408.03 78.7879C1428.93 104.276 1448.93 130.707 1467.49 157.347C1489.6 189.103 1510.91 222.947 1530.83 257.938C1553.34 297.505 1575.13 340.376 1595.58 385.358C1606.46 409.279 1617.24 434.434 1627.65 460.128C1638.3 486.438 1648.87 514.095 1659.05 542.333C1669.36 570.899 1679.58 600.925 1689.45 631.579C1699.3 662.159 1709.08 694.277 1718.53 727.037C1727.82 759.236 1737.05 792.994 1745.98 827.373C1754.23 859.151 1762.44 892.35 1770.41 926.094H1771.96C1763.94 892.141 1755.68 858.737 1747.38 826.771C1738.45 792.369 1729.21 758.592 1719.92 726.376C1710.46 693.591 1700.67 661.453 1690.82 630.85C1680.94 600.172 1670.7 570.121 1660.39 541.53C1650.2 513.266 1639.62 485.583 1628.96 459.247C1618.54 433.526 1607.74 408.341 1596.86 384.395C1576.38 339.356 1554.57 296.431 1532.02 256.811C1512.07 221.769 1490.73 187.877 1468.59 156.075C1450 129.395 1429.97 102.927 1409.04 77.4038C1372.59 32.9618 1338.27 -3.09512 1309.5 -32.5022C1256.62 -86.557 1221.79 -120.866 1221.45 -121.206L1220.55 -119.692C1220.9 -119.352 1255.71 -85.0551 1308.58 -31.0113C1337.32 -1.62675 1371.61 34.3941 1408.03 78.7879Z" fill="#CCCCCC" fill-opacity="0.2"/>
<path d="M1225.76 47.1789C1246.03 79.4537 1269 116.033 1294.2 158.109C1329.55 217.151 1360.17 272.384 1387.79 326.966C1405.24 361.462 1422.19 397.08 1438.17 432.824C1455.49 471.588 1472.41 512.153 1488.46 553.39C1504.95 595.784 1521.14 640.464 1536.56 686.189C1551.51 730.508 1566.23 777.258 1580.32 825.138C1589.91 857.703 1599.41 891.539 1608.7 926.094H1610.26C1600.92 891.307 1591.35 857.24 1581.7 824.462C1567.61 776.556 1552.87 729.778 1537.92 685.431C1522.48 639.674 1506.29 594.96 1489.78 552.538C1473.72 511.266 1456.79 470.669 1439.45 431.874C1423.46 396.098 1406.49 360.452 1389.03 325.924C1361.38 271.303 1330.75 216.027 1295.37 156.945C1270.16 114.852 1247.18 78.2633 1226.91 45.9811L1220.82 36.2938C1180.97 -27.2083 1155.5 -69.5192 1155.25 -69.9395L1154.08 -68.7722C1154.33 -68.352 1179.81 -26.0276 1219.68 37.4916L1225.76 47.1789Z" fill="#CCCCCC" fill-opacity="0.2"/>
<path d="M1191.83 206.885L1193.1 209.957C1214.92 262.907 1236.35 315.114 1258.64 371.603C1284.71 437.656 1308.76 501.812 1330.13 562.286C1353.22 627.672 1376.28 697.641 1396.81 764.633C1412.83 816.949 1428.5 871.236 1443.48 926.093H1445.04C1430.01 870.997 1414.27 816.474 1398.18 763.934C1377.65 696.911 1354.58 626.911 1331.47 561.497C1310.09 500.998 1286.03 436.817 1259.96 370.74C1237.66 314.238 1216.22 262.022 1194.4 209.064L1193.14 205.992C1174.42 160.58 1156.75 117.684 1142.43 82.2117C1114.32 12.5606 1096.73 -34.5237 1096.55 -34.9922L1095.22 -34.1664C1095.4 -33.6997 1113 13.4103 1141.12 83.0894C1155.44 118.57 1173.12 161.469 1191.83 206.885Z" fill="#CCCCCC" fill-opacity="0.2"/>
<path d="M1278.49 906.602C1278.31 905.865 1260.8 831.737 1234.82 729.312C1210.9 635.013 1179.97 518.563 1147.71 397.527C1115.56 276.892 1090.59 180.585 1073.48 111.279C1055.4 37.9775 1044.15 -11.7168 1044.04 -12.2097L1045.46 -12.7417C1045.57 -12.2488 1056.81 37.4254 1074.89 110.702C1091.99 179.994 1116.96 276.288 1149.11 396.91C1181.37 517.951 1212.3 634.409 1236.23 728.721C1262.21 831.167 1279.73 905.313 1279.9 906.049L1278.49 906.602Z" fill="#CCCCCC" fill-opacity="0.2"/>
<path d="M1125.52 853.698C1125.42 853.112 1116.07 794.279 1102.76 709.502C1084.51 593.302 1069.51 495.522 1056.9 410.577C1026.55 206.036 1000.64 2.33523 1000.38 0.303085L1001.84 -0.00537109C1002.1 2.0286 1028 205.705 1058.35 410.22C1070.96 495.161 1085.96 592.932 1104.21 709.123C1117.52 793.898 1126.87 852.731 1126.96 853.315L1125.52 853.698Z" fill="#CCCCCC" fill-opacity="0.2"/>
<path d="M1011.27 831.159C993.303 546.69 977.38 269.11 963.943 6.12595L965.418 5.99951C978.854 268.974 994.778 546.545 1012.74 831.002L1011.27 831.159Z" fill="#CCCCCC" fill-opacity="0.2"/>
<path d="M935.828 7.59131H934.35V826.12H935.828V7.59131Z" fill="#CCCCCC" fill-opacity="0.2"/>
<path d="M858.907 831.159L857.434 831.002C875.401 546.545 891.325 268.974 904.761 5.99951L906.236 6.12595C892.799 269.11 876.875 546.69 858.907 831.159Z" fill="#CCCCCC" fill-opacity="0.2"/>
<path d="M744.665 853.698L743.217 853.315C743.31 852.731 752.662 793.898 765.976 709.123C784.214 592.988 799.213 495.216 811.829 410.22C842.179 205.705 868.083 2.0286 868.341 -0.00537109L869.8 0.303085C869.542 2.33523 843.634 206.036 813.281 410.577C800.663 495.58 785.664 593.359 767.425 709.502C754.111 794.278 744.758 853.112 744.665 853.698Z" fill="#CCCCCC" fill-opacity="0.2"/>
<path d="M591.696 906.602L590.282 906.048C590.456 905.312 607.969 831.167 633.954 728.72C657.882 634.409 688.817 517.951 721.073 396.909C753.219 276.287 778.19 179.994 795.291 110.702C813.372 37.4249 824.61 -12.2493 824.722 -12.7422L826.14 -12.2102C826.029 -11.7173 814.786 37.977 796.699 111.278C779.594 180.585 754.62 276.892 722.471 397.526C690.217 518.562 659.284 635.013 635.358 729.311C609.379 831.737 591.87 905.865 591.696 906.602Z" fill="#CCCCCC" fill-opacity="0.2"/>
<path d="M426.703 926.094C441.68 871.236 457.35 816.949 473.373 764.633C493.897 697.641 516.954 627.672 540.053 562.287C561.423 501.813 585.474 437.657 611.539 371.603C633.847 315.075 655.272 262.885 677.082 209.957L678.464 206.603C697.134 161.295 714.77 118.498 729.06 83.0904C757.183 13.4112 774.783 -33.6988 774.958 -34.1654L773.626 -34.9912C773.451 -34.5227 755.86 12.5616 727.749 82.2127C713.461 117.612 695.827 160.405 677.158 205.71L675.776 209.064C653.963 262 632.535 314.197 610.221 370.74C584.146 436.817 560.086 500.999 538.707 561.497C515.599 626.911 492.531 696.912 471.998 763.934C455.907 816.474 440.17 870.997 425.134 926.094H426.703Z" fill="#CCCCCC" fill-opacity="0.2"/>
<path d="M261.482 926.094C270.765 891.552 280.273 857.715 289.857 825.138C303.949 777.258 318.672 730.508 333.617 686.189C349.038 640.477 365.221 595.797 381.718 553.39C397.765 512.153 414.685 471.588 432.009 432.826C447.99 397.08 464.942 361.462 482.393 326.966C510.009 272.394 540.621 217.16 575.977 158.109C601.177 116.032 624.151 79.4531 644.421 47.1789L650.505 37.4916C690.371 -26.027 715.846 -68.352 716.099 -68.7722L714.932 -69.9395C714.678 -69.5192 689.212 -27.2083 649.356 36.2938L643.273 45.9811C622.998 78.2633 600.018 114.852 574.807 156.945C539.427 216.037 508.794 271.312 481.156 325.924C463.69 360.452 446.724 396.098 430.73 431.874C413.391 470.669 396.457 511.266 380.398 552.538C363.889 594.975 347.693 639.687 332.263 685.431C317.308 729.778 302.576 776.555 288.477 824.462C278.828 857.253 269.262 891.318 259.921 926.094H261.482Z" fill="#CCCCCC" fill-opacity="0.2"/>
<path d="M99.7612 926.093C107.741 892.323 115.95 859.121 124.193 827.373C133.128 792.968 142.364 759.209 151.642 727.037C161.093 694.275 170.876 662.159 180.721 631.578C190.592 600.925 200.821 570.899 211.124 542.333C221.31 514.095 231.874 486.438 242.526 460.128C252.93 434.434 263.719 409.278 274.592 385.358C295.048 340.369 316.834 297.498 339.344 257.937C359.265 222.943 380.576 189.1 402.686 157.347C421.243 130.708 441.249 104.275 462.147 78.7876C498.562 34.3939 532.851 -1.627 561.589 -31.0103C614.466 -85.0523 649.279 -119.351 649.626 -119.692L648.728 -121.205C648.382 -120.865 613.559 -86.5561 560.671 -32.5012C531.908 -3.09413 497.587 32.9622 461.131 77.4042C440.204 102.929 420.171 129.397 401.586 156.075C379.444 187.875 358.101 221.767 338.153 256.811C315.613 296.424 293.799 339.351 273.317 384.396C262.432 408.342 251.631 433.527 241.216 459.247C230.554 485.583 219.979 513.266 209.783 541.531C199.471 570.122 189.234 600.173 179.355 630.85C169.504 661.451 159.714 693.592 150.256 726.376C140.972 758.567 131.731 792.343 122.791 826.771C114.498 858.709 106.24 892.112 98.2144 926.094L99.7612 926.093Z" fill="#CCCCCC" fill-opacity="0.2"/>
<path d="M-50.9596 926.093C-43.0434 884.676 -34.9174 844.387 -26.7203 806.002C-16.3099 757.264 -5.4729 710.074 5.48966 665.736C16.5261 621.116 28.024 578.038 39.6627 537.698C51.2161 497.664 63.2646 459.096 75.4728 423.064C87.4306 387.783 99.9084 353.854 112.56 322.218C124.797 291.628 137.57 262.249 150.525 234.896C162.901 208.772 175.829 183.684 188.95 160.325C201.331 138.292 214.268 117.118 227.401 97.3879C239.651 78.9955 252.452 61.2871 265.447 44.7594C288.232 15.7945 312.865 -11.1065 338.66 -35.1923C386.597 -79.9134 432.906 -109.871 463.567 -128.514C494.945 -147.58 521.421 -161.784 540.753 -172.155L575.926 -191.051L575.358 -192.811L540.185 -173.912C520.84 -163.535 494.346 -149.321 462.937 -130.236C432.222 -111.561 385.831 -81.5492 337.793 -36.7352C311.936 -12.592 287.247 14.3707 264.408 43.4064C251.384 59.9696 238.555 77.7152 226.278 96.1505C213.12 115.917 200.157 137.134 187.751 159.21C174.609 182.608 161.659 207.739 149.263 233.904C136.29 261.296 123.499 290.717 111.246 321.347C98.5795 353.019 86.0881 386.986 74.119 422.302C61.8998 458.366 49.8399 496.968 38.2773 537.037C26.6299 577.403 15.125 620.51 4.08089 665.16C-6.88765 709.521 -17.7295 756.737 -28.1448 805.496C-36.3768 844.039 -44.5348 884.498 -52.4814 926.094L-50.9596 926.093Z" fill="#CCCCCC" fill-opacity="0.2"/>
<path d="M-184.999 926.094C-180.946 898.196 -176.824 870.718 -172.693 844.139C-167.291 809.38 -161.719 775.107 -156.131 742.271C-150.514 709.258 -144.723 676.768 -138.918 645.702C-133.105 614.593 -127.105 583.976 -121.082 554.698C-115.07 525.484 -108.871 496.798 -102.657 469.438C-96.4672 442.193 -90.0827 415.469 -83.6812 390.01C-77.3298 364.757 -70.7756 340.003 -64.1981 316.434C-57.6972 293.146 -50.9865 270.343 -44.2519 248.659C-37.6189 227.305 -30.7702 206.416 -23.897 186.574C-17.1466 167.094 -10.1788 148.063 -3.18442 130.011C10.3402 95.1092 24.5584 62.325 39.075 32.5704C52.8208 4.40503 67.2727 -21.9438 82.0295 -45.7437C95.833 -67.9983 110.342 -88.732 125.153 -107.374C138.825 -124.573 153.209 -140.559 167.906 -154.889C181.293 -167.932 195.374 -180.022 209.754 -190.823C234.374 -209.295 260.204 -224.432 288.721 -237.098C310.317 -246.678 333.109 -254.685 358.4 -261.58C398.864 -272.596 433.991 -278.03 457.235 -281.624L459.058 -281.907C482.084 -285.465 495.54 -287.329 495.674 -287.347L495.517 -289.24C495.383 -289.221 481.918 -287.358 458.882 -283.796L457.06 -283.515C433.789 -279.915 398.623 -274.476 358.095 -263.443C332.744 -256.532 309.894 -248.503 288.24 -238.898C259.631 -226.191 233.715 -211.004 209.011 -192.466C194.579 -181.628 180.449 -169.496 167.015 -156.406C152.269 -142.029 137.838 -125.991 124.121 -108.735C109.267 -90.041 94.7171 -69.2456 80.8762 -46.9336C66.084 -23.0762 51.599 3.33185 37.8233 31.5565C23.2812 61.3636 9.03961 94.2034 -4.50677 129.159C-11.5104 147.238 -18.488 166.294 -25.2465 185.796C-32.1279 205.661 -38.9842 226.574 -45.6248 247.952C-52.3648 269.655 -59.082 292.48 -65.5889 315.79C-72.1713 339.376 -78.7315 364.15 -85.0867 389.422C-91.4925 414.899 -97.8814 441.64 -104.075 468.902C-110.293 496.277 -116.496 524.979 -122.511 554.21C-128.535 583.5 -134.539 614.133 -140.354 645.255C-146.161 676.334 -151.955 708.837 -157.574 741.861C-163.164 774.71 -168.738 808.994 -174.142 843.763C-178.29 870.463 -182.432 898.068 -186.501 926.093L-184.999 926.094Z" fill="#CCCCCC" fill-opacity="0.2"/>
<path d="M-299.2 926.094C-297.824 913.005 -296.443 900.033 -295.06 887.244C-289.81 838.737 -284.373 791.136 -278.898 745.763C-273.405 700.229 -267.71 655.596 -261.975 613.104C-256.244 570.651 -250.299 529.069 -244.307 489.515C-238.329 450.08 -232.142 411.595 -225.918 375.13C-219.718 338.82 -213.299 303.437 -206.837 269.958C-200.43 236.76 -193.789 204.445 -187.1 173.906C-180.497 143.76 -173.65 114.449 -166.749 86.7937C-159.961 59.5934 -152.922 33.2018 -145.83 8.34949C-138.871 -16.0283 -131.659 -39.618 -124.397 -61.7646C-117.285 -83.4407 -109.921 -104.36 -102.509 -123.943C-95.2774 -143.04 -87.7819 -161.443 -80.2309 -178.634C-72.8925 -195.335 -65.2888 -211.379 -57.6313 -226.319C-43.0571 -254.74 -27.6259 -280.445 -11.7663 -302.721C2.9231 -323.341 18.4761 -341.719 34.4629 -357.345C49.0685 -371.61 64.527 -384.06 80.4094 -394.348C107.301 -411.746 137.065 -423.945 168.876 -430.606C193.415 -435.727 219.53 -437.811 248.705 -437.008C296.366 -435.651 338.317 -427.624 366.076 -422.314L366.503 -422.232C393.718 -417.018 409.795 -413.506 409.955 -413.471L410.203 -415.349C410.044 -415.382 393.953 -418.898 366.72 -424.115L366.293 -424.195C338.497 -429.515 296.492 -437.552 248.737 -438.912C219.467 -439.723 193.268 -437.629 168.64 -432.485C136.681 -425.793 106.772 -413.534 79.7463 -396.051C63.784 -385.709 48.2484 -373.198 33.5699 -358.862C17.5141 -343.167 1.89478 -324.712 -12.8544 -304.008C-28.7672 -281.657 -44.2469 -255.871 -58.8634 -227.367C-66.5405 -212.392 -74.161 -196.31 -81.5163 -179.571C-89.0825 -162.346 -96.5916 -143.91 -103.838 -124.776C-111.261 -105.165 -118.636 -84.214 -125.758 -62.5048C-133.029 -40.3321 -140.249 -16.7142 -147.217 7.69104C-154.317 32.5672 -161.361 58.985 -168.156 86.2092C-175.061 113.889 -181.914 143.221 -188.523 173.388C-195.216 203.947 -201.86 236.283 -208.271 269.498C-214.736 302.993 -221.159 338.396 -227.361 374.721C-233.588 411.201 -239.778 449.7 -245.757 489.15C-251.752 528.717 -257.698 570.311 -263.431 612.776C-269.168 655.281 -274.863 699.924 -280.358 745.469C-285.834 790.853 -291.272 838.466 -296.523 886.98C-297.916 899.855 -299.306 912.916 -300.692 926.094H-299.2Z" fill="#CCCCCC" fill-opacity="0.2"/>
<path d="M935.087 28.1296C925.724 28.1296 916.139 27.6703 906.601 26.767C895.242 25.6864 883.621 23.9463 872.059 21.5904C858.762 18.8778 845.16 15.2741 831.631 10.8763C816.509 5.95996 801.083 -0.0735474 785.78 -7.05688C769.094 -14.6766 752.112 -23.6273 735.305 -33.6604C717.404 -44.35 699.243 -56.5417 681.326 -69.8993C662.667 -83.8146 643.804 -99.3418 625.261 -116.053C606.39 -133.065 587.374 -151.73 568.74 -171.534C550.258 -191.182 531.675 -212.455 513.511 -234.764C496.015 -256.256 478.453 -279.263 461.317 -303.15C431.181 -345.167 401.291 -391.378 372.48 -440.496C352.226 -475.033 332.877 -510.249 313.326 -548.155C299.539 -574.891 292.201 -590.06 292.128 -590.208L293.382 -591.216C293.456 -591.066 300.783 -575.917 314.557 -549.208C334.092 -511.335 353.424 -476.15 373.659 -441.645C402.442 -392.575 432.299 -346.413 462.403 -304.44C479.519 -280.585 497.056 -257.605 514.531 -236.143C532.67 -213.864 551.226 -192.621 569.682 -173.003C588.285 -153.23 607.27 -134.596 626.108 -117.613C644.617 -100.933 663.444 -85.4338 682.067 -71.546C699.946 -58.2183 718.066 -46.0529 735.927 -35.3895C752.693 -25.3791 769.632 -16.4498 786.274 -8.85327C801.534 -1.88763 816.916 4.12872 831.993 9.03168C845.479 13.4124 859.037 17.0045 872.291 19.7079C883.812 22.0564 895.393 23.7911 906.71 24.8655C916.213 25.7677 925.761 26.2245 935.089 26.2245C944.415 26.2245 953.964 25.7671 963.467 24.8655C974.784 23.7905 986.364 22.0558 997.886 19.7079C1011.14 17.0045 1024.7 13.4124 1038.19 9.03168C1053.26 4.13055 1068.64 -1.88641 1083.9 -8.85327C1100.54 -16.4504 1117.48 -25.3791 1134.25 -35.3895C1152.11 -46.0529 1170.23 -58.2183 1188.11 -71.546C1206.73 -85.4338 1225.56 -100.933 1244.07 -117.615C1262.9 -134.591 1281.89 -153.227 1300.5 -173.003C1318.96 -192.627 1337.51 -213.869 1355.65 -236.143C1373.12 -257.605 1390.66 -280.585 1407.77 -304.442C1437.87 -346.407 1467.73 -392.569 1496.52 -441.645C1516.75 -476.15 1536.08 -511.335 1555.62 -549.208C1569.39 -575.918 1576.72 -591.066 1576.79 -591.216L1578.05 -590.208C1577.98 -590.06 1570.64 -574.891 1556.85 -548.155C1537.3 -510.249 1517.95 -475.033 1497.7 -440.496C1468.88 -391.372 1438.99 -345.162 1408.86 -303.15C1391.72 -279.263 1374.16 -256.256 1356.67 -234.764C1338.51 -212.461 1319.92 -191.188 1301.44 -171.534C1282.8 -151.727 1263.78 -133.061 1244.92 -116.053C1226.37 -99.3418 1207.51 -83.8146 1188.85 -69.8993C1170.93 -56.5417 1152.77 -44.35 1134.87 -33.6604C1118.06 -23.6273 1101.08 -14.6766 1084.4 -7.05688C1069.09 -0.0735474 1053.67 5.96179 1038.55 10.8763C1025.02 15.2735 1011.41 18.8772 998.118 21.5904C986.555 23.9457 974.934 25.6864 963.576 26.767C954.035 27.6703 944.451 28.1296 935.087 28.1296Z" fill="#CCCCCC" fill-opacity="0.2"/>
<path d="M935.089 48.9396C925.401 48.9377 915.484 48.4656 905.614 47.5397C893.794 46.4219 881.705 44.62 869.681 42.1823C855.79 39.3616 841.584 35.6113 827.456 31.0321C811.614 25.8965 795.456 19.5838 779.428 12.2731C761.914 4.28137 744.091 -5.11768 726.45 -15.6638C707.615 -26.9276 688.533 -39.774 669.733 -53.8433C650.102 -68.5398 630.276 -84.9429 610.808 -102.598C590.957 -120.607 570.981 -140.366 551.434 -161.327C532.016 -182.157 512.519 -204.713 493.484 -228.367C475.119 -251.197 456.725 -275.623 438.81 -300.964C407.259 -345.607 376.042 -394.716 346.026 -446.924C324.913 -483.659 304.782 -521.108 284.484 -561.414C270.167 -589.85 262.56 -605.986 262.485 -606.146L263.749 -607.133C263.824 -606.973 271.42 -590.86 285.724 -562.451C306.005 -522.178 326.118 -484.76 347.213 -448.058C377.2 -395.9 408.384 -346.841 439.902 -302.247C457.796 -276.933 476.168 -252.539 494.51 -229.739C513.518 -206.115 532.988 -183.591 552.379 -162.791C571.896 -141.864 591.84 -122.134 611.659 -104.156C631.092 -86.5316 650.881 -70.1584 670.475 -55.4918C689.236 -41.4501 708.278 -28.6317 727.072 -17.3899C744.67 -6.87189 762.452 2.50452 779.922 10.4755C795.906 17.7679 812.02 24.0622 827.817 29.1844C841.902 33.7489 856.063 37.4883 869.91 40.2998C881.895 42.7302 893.943 44.5259 905.721 45.6382C915.556 46.5623 925.437 47.0327 935.089 47.0345C944.741 47.0327 954.621 46.5623 964.456 45.6382C976.233 44.5266 988.282 42.7302 1000.27 40.2998C1014.11 37.4907 1028.27 33.7495 1042.36 29.1844C1058.16 24.0622 1074.27 17.7661 1090.25 10.4755C1107.73 2.50452 1125.51 -6.87189 1143.1 -17.3899C1161.9 -28.6317 1180.94 -41.4501 1199.7 -55.4918C1219.3 -70.162 1239.09 -86.5352 1258.52 -104.156C1278.33 -122.134 1298.28 -141.864 1317.8 -162.791C1337.19 -183.589 1356.66 -206.114 1375.67 -229.739C1394.01 -252.534 1412.38 -276.93 1430.27 -302.247C1461.79 -346.842 1492.98 -395.9 1522.96 -448.058C1544.06 -484.76 1564.17 -522.178 1584.45 -562.451C1598.76 -590.86 1606.35 -606.973 1606.43 -607.133L1607.69 -606.146C1607.62 -605.986 1600.01 -589.85 1585.69 -561.414C1565.39 -521.109 1545.26 -483.659 1524.15 -446.924C1494.13 -394.716 1462.92 -345.607 1431.37 -300.964C1413.45 -275.617 1395.05 -251.193 1376.69 -228.369C1357.66 -204.711 1338.16 -182.155 1318.74 -161.327C1299.19 -140.366 1279.22 -120.607 1259.37 -102.598C1239.9 -84.9447 1220.08 -68.5416 1200.44 -53.8433C1181.64 -39.7734 1162.56 -26.9276 1143.73 -15.6638C1126.09 -5.11768 1108.26 4.28137 1090.75 12.2731C1074.72 19.582 1058.56 25.8947 1042.72 31.0321C1028.59 35.6119 1014.38 39.3616 1000.5 42.1823C988.471 44.62 976.381 46.4219 964.563 47.5397C954.693 48.4656 944.776 48.9377 935.089 48.9396Z" fill="#CCCCCC" fill-opacity="0.2"/>
<path d="M935.094 71.0898C925.072 71.0898 914.799 70.6061 904.56 69.6544C892.249 68.5049 879.654 66.6438 867.126 64.1224C852.584 61.1942 837.722 57.293 822.952 52.5337C806.345 47.1782 789.389 40.5839 772.555 32.9324C754.123 24.5485 735.382 14.6865 716.852 3.61816C697.012 -8.23511 676.929 -21.762 657.157 -36.5806C636.47 -52.0914 615.602 -69.4113 595.132 -88.0566C574.228 -107.104 553.216 -128.008 532.682 -150.194C512.253 -172.27 491.775 -196.172 471.817 -221.24C452.551 -245.443 433.269 -271.355 414.508 -298.26C381.48 -345.636 348.873 -397.789 317.594 -453.266C295.601 -492.28 274.669 -532.071 253.601 -574.908C238.743 -605.122 230.866 -622.264 230.789 -622.433L232.061 -623.403C232.138 -623.232 240.005 -606.113 254.849 -575.927C275.9 -533.125 296.814 -493.368 318.789 -454.385C350.039 -398.96 382.613 -346.859 415.608 -299.531C434.347 -272.658 453.605 -246.776 472.848 -222.604C492.781 -197.568 513.231 -173.698 533.631 -151.652C554.135 -129.501 575.114 -108.628 595.985 -89.6105C616.42 -70.9969 637.25 -53.7087 657.9 -38.2255C677.633 -23.4362 697.675 -9.93744 717.473 1.89325C735.961 12.9341 754.659 22.7735 773.046 31.1372C789.837 38.7698 806.748 45.3481 823.31 50.6866C838.037 55.4355 852.856 59.3233 867.353 62.2423C879.841 64.7564 892.396 66.6102 904.667 67.7555C914.869 68.7053 925.107 69.1872 935.094 69.1872C945.081 69.1872 955.318 68.7053 965.521 67.7555C977.791 66.6102 990.346 64.7564 1002.83 62.2423C1017.33 59.3233 1032.15 55.4355 1046.88 50.6866C1063.44 45.3481 1080.35 38.7698 1097.14 31.1372C1115.53 22.7735 1134.23 12.9341 1152.71 1.89325C1172.51 -9.93744 1192.55 -23.4368 1212.29 -38.2274C1232.94 -53.7081 1253.77 -70.9969 1274.2 -89.6105C1295.07 -108.628 1316.05 -129.501 1336.56 -151.652C1356.96 -173.698 1377.41 -197.568 1397.34 -222.604C1416.58 -246.776 1435.84 -272.658 1454.58 -299.531C1487.57 -346.859 1520.15 -398.96 1551.4 -454.385C1573.37 -493.359 1594.28 -533.117 1615.34 -575.927C1630.18 -606.113 1638.05 -623.232 1638.13 -623.401L1639.4 -622.433C1639.32 -622.264 1631.45 -605.122 1616.59 -574.908C1595.51 -532.063 1574.58 -492.273 1552.6 -453.266C1521.32 -397.789 1488.71 -345.636 1455.68 -298.26C1436.92 -271.355 1417.64 -245.443 1398.37 -221.24C1378.41 -196.172 1357.93 -172.27 1337.51 -150.194C1316.97 -128.009 1295.96 -107.104 1275.06 -88.0566C1254.59 -69.4113 1233.72 -52.0914 1213.03 -36.5825C1193.26 -21.7614 1173.17 -8.2345 1153.34 3.61816C1134.81 14.6871 1116.06 24.5491 1097.63 32.9324C1080.8 40.5839 1063.84 47.1788 1047.24 52.5337C1032.47 57.2936 1017.6 61.1942 1003.06 64.1224C990.534 66.6438 977.939 68.5049 965.628 69.6544C955.39 70.6067 945.117 71.0898 935.094 71.0898Z" fill="#CCCCCC" fill-opacity="0.2"/>
<path d="M935.091 94.718C924.7 94.718 914.045 94.2232 903.42 93.2509C890.575 92.0683 877.432 90.151 864.359 87.5502C849.113 84.5139 833.536 80.4679 818.062 75.5259C800.59 69.9444 782.764 63.0649 765.08 55.0768C745.651 46.2984 725.909 35.9624 706.403 24.3583C685.47 11.9005 664.294 -2.3233 643.463 -17.9196C621.627 -34.2744 599.625 -52.5405 578.073 -72.2102C556.034 -92.3306 533.905 -114.428 512.303 -137.892C490.794 -161.258 469.266 -186.563 448.318 -213.106C428.086 -238.744 407.865 -266.205 388.218 -294.726C353.625 -344.958 319.569 -400.268 286.996 -459.12C264.099 -500.5 242.351 -542.707 220.508 -588.151C205.108 -620.195 196.964 -638.38 196.884 -638.558L198.164 -639.51C198.245 -639.33 206.378 -621.167 221.765 -589.155C243.59 -543.744 265.321 -501.571 288.2 -460.224C320.743 -401.428 354.766 -346.171 389.324 -295.99C408.949 -267.501 429.146 -240.072 449.355 -214.463C470.276 -187.957 491.775 -162.682 513.256 -139.345C534.828 -115.918 556.924 -93.8528 578.928 -73.764C600.445 -54.1262 622.408 -35.8912 644.208 -19.5663C664.999 -4 686.133 10.1981 707.024 22.6298C726.487 34.2094 746.185 44.5216 765.571 53.2811C783.211 61.2484 800.992 68.1114 818.42 73.6782C833.851 78.6074 849.384 82.6424 864.586 85.6696C877.62 88.2612 890.722 90.1748 903.527 91.3518C914.116 92.3224 924.736 92.8153 935.093 92.8153C945.449 92.8153 956.068 92.3224 966.658 91.3518C979.463 90.1748 992.564 88.2612 1005.6 85.6696C1020.8 82.6424 1036.33 78.6074 1051.76 73.6782C1069.19 68.1114 1086.97 61.2484 1104.61 53.2811C1124 44.5216 1143.7 34.21 1163.16 22.6298C1184.06 10.1945 1205.19 -4.00183 1225.98 -19.5663C1247.77 -35.8875 1269.74 -54.1225 1291.26 -73.764C1313.26 -93.8503 1335.36 -115.916 1356.93 -139.347C1378.42 -162.69 1399.91 -187.963 1420.83 -214.462C1441.04 -240.072 1461.24 -267.5 1480.86 -295.989C1515.42 -346.169 1549.44 -401.427 1581.98 -460.224C1604.86 -501.563 1626.59 -543.736 1648.42 -589.155C1663.81 -621.167 1671.94 -639.329 1672.02 -639.509L1673.3 -638.557C1673.22 -638.379 1665.08 -620.194 1649.68 -588.15C1627.83 -542.697 1606.08 -500.492 1583.19 -459.12C1550.61 -400.267 1516.56 -344.957 1481.97 -294.725C1462.32 -266.205 1442.1 -238.744 1421.87 -213.105C1400.92 -186.571 1379.4 -161.265 1357.88 -137.891C1336.28 -114.426 1314.15 -92.3276 1292.11 -72.2095C1270.55 -52.5356 1248.55 -34.2695 1226.72 -17.9189C1205.89 -2.32458 1184.72 11.8992 1163.78 24.3589C1144.27 35.963 1124.53 46.2996 1105.1 55.0775C1087.42 63.0649 1069.59 69.9444 1052.12 75.5265C1036.65 80.4685 1021.07 84.5145 1005.83 87.5508C992.751 90.1516 979.608 92.0689 966.763 93.2514C956.137 94.2238 945.482 94.718 935.091 94.718Z" fill="#CCCCCC" fill-opacity="0.2"/>
<path d="M935.088 119.976C924.295 119.976 913.227 119.472 902.193 118.481C888.765 117.269 875.028 115.299 861.365 112.626C845.356 109.49 829 105.304 812.752 100.185C794.334 94.3801 775.557 87.2178 756.94 78.9011C736.422 69.7269 715.584 58.9188 695.005 46.7717C672.884 33.7097 650.516 18.7774 628.52 2.38525C605.43 -14.8265 582.2 -34.0613 559.472 -54.7804C536.195 -76.007 512.861 -99.325 490.117 -124.089C445.523 -172.663 401.66 -228.455 359.748 -289.91C323.527 -343.04 287.971 -401.569 254.067 -463.872C230.256 -507.639 207.686 -552.293 185.068 -600.388C169.133 -634.275 160.726 -653.508 160.643 -653.698L161.931 -654.631C162.014 -654.441 170.41 -635.232 186.332 -601.373C208.933 -553.316 231.484 -508.696 255.277 -464.964C289.15 -402.719 324.672 -344.245 360.858 -291.165C402.723 -229.779 446.533 -174.057 491.071 -125.542C513.783 -100.814 537.083 -77.5291 560.325 -56.3343C583.017 -35.647 606.21 -16.4458 629.261 0.738525C651.215 17.0989 673.543 32.0049 695.622 45.0425C716.158 57.162 736.951 67.9495 757.425 77.1011C775.998 85.3995 794.732 92.5452 813.103 98.3369C829.31 103.441 845.622 107.615 861.587 110.744C875.212 113.409 888.909 115.374 902.297 116.58C913.297 117.57 924.329 118.072 935.088 118.072C945.846 118.072 956.879 117.57 967.879 116.58C981.267 115.374 994.964 113.408 1008.59 110.744C1024.55 107.615 1040.87 103.441 1057.07 98.3369C1075.44 92.5452 1094.18 85.3995 1112.75 77.1011C1133.22 67.9495 1154.02 57.1614 1174.55 45.0425C1196.63 32.0049 1218.96 17.0989 1240.91 0.738525C1263.96 -16.4458 1287.16 -35.647 1309.85 -56.3343C1333.09 -77.5291 1356.39 -100.814 1379.1 -125.542C1423.64 -174.06 1467.46 -229.783 1509.32 -291.165C1545.5 -344.244 1581.03 -402.719 1614.9 -464.964C1638.68 -508.681 1661.24 -553.302 1683.84 -601.373C1699.77 -635.232 1708.16 -654.441 1708.24 -654.631L1709.53 -653.698C1709.45 -653.508 1701.04 -634.275 1685.11 -600.388C1662.48 -552.278 1639.91 -507.623 1616.11 -463.872C1582.2 -401.569 1546.65 -343.04 1510.43 -289.91C1468.52 -228.456 1424.65 -172.667 1380.06 -124.089C1357.31 -99.325 1333.98 -76.007 1310.7 -54.7804C1287.97 -34.062 1264.74 -14.8271 1241.65 2.38525C1219.66 18.7774 1197.29 33.7097 1175.17 46.7717C1154.59 58.9188 1133.75 69.7269 1113.24 78.9011C1094.62 87.2178 1075.84 94.3801 1057.42 100.185C1041.17 105.304 1024.82 109.49 1008.81 112.626C995.146 115.299 981.41 117.269 967.982 118.481C956.947 119.472 945.88 119.976 935.088 119.976Z" fill="#CCCCCC" fill-opacity="0.2"/>
<path d="M935.091 147.037C923.849 147.037 912.337 146.528 900.874 145.522C886.824 144.287 872.44 142.271 858.12 139.533C841.274 136.306 824.064 131.991 806.969 126.709C787.5 120.686 767.677 113.257 748.05 104.625C726.329 95.0681 704.289 83.7969 682.541 71.1216C659.086 57.4445 635.412 41.8073 612.175 24.6456C587.727 6.5835 563.156 -13.6163 539.144 -35.3927C514.522 -57.7303 489.887 -82.2724 465.922 -108.34C418.893 -159.511 372.788 -218.326 328.893 -283.153C290.99 -339.149 253.893 -400.871 218.633 -466.61C193.918 -512.698 170.535 -559.756 147.147 -610.474C130.694 -646.158 122.035 -666.414 121.949 -666.615L123.244 -667.533C123.33 -667.332 131.978 -647.099 148.416 -611.448C171.788 -560.766 195.153 -513.745 219.847 -467.693C255.077 -402.013 292.138 -340.346 330.005 -284.406C373.852 -219.652 419.902 -160.905 466.875 -109.795C490.807 -83.764 515.408 -59.2561 539.994 -36.9514C563.968 -15.2068 588.5 4.96185 612.909 22.994C636.105 40.1257 659.737 55.733 683.149 69.3862C704.854 82.0359 726.851 93.2864 748.526 102.821C768.11 111.436 787.889 118.849 807.313 124.856C824.366 130.128 841.533 134.432 858.336 137.651C872.617 140.38 886.962 142.39 900.974 143.621C912.403 144.623 923.881 145.133 935.089 145.133C946.298 145.133 957.775 144.623 969.204 143.621C983.216 142.39 997.561 140.38 1011.84 137.651C1028.65 134.432 1045.81 130.128 1062.87 124.856C1082.29 118.849 1102.07 111.436 1121.65 102.821C1143.33 93.2864 1165.33 82.0353 1187.03 69.3862C1210.44 55.733 1234.07 40.1257 1257.27 22.994C1281.68 4.96185 1306.21 -15.2062 1330.19 -36.9514C1354.77 -59.2506 1379.37 -83.7603 1403.3 -109.795C1450.28 -160.905 1496.33 -219.653 1540.17 -284.406C1578.04 -340.346 1615.1 -402.013 1650.33 -467.693C1675.03 -513.745 1698.39 -560.766 1721.76 -611.448C1738.2 -647.099 1746.85 -667.332 1746.93 -667.533L1748.23 -666.615C1748.14 -666.415 1739.49 -646.158 1723.03 -610.474C1699.64 -559.756 1676.26 -512.698 1651.55 -466.61C1616.29 -400.871 1579.19 -339.149 1541.29 -283.153C1497.39 -218.328 1451.29 -159.513 1404.26 -108.34C1380.29 -82.2687 1355.65 -57.7255 1331.04 -35.3927C1307.02 -13.6139 1282.45 6.58594 1258 24.6456C1234.77 41.8073 1211.09 57.4445 1187.64 71.1216C1165.89 83.7963 1143.85 95.0681 1122.13 104.625C1102.5 113.257 1082.68 120.686 1063.21 126.709C1046.12 131.991 1028.91 136.307 1012.06 139.533C997.74 142.272 983.355 144.287 969.305 145.522C957.844 146.528 946.332 147.037 935.091 147.037Z" fill="#CCCCCC" fill-opacity="0.2"/>
<path d="M935.088 176.102C923.373 176.102 911.38 175.589 899.441 174.576C884.693 173.325 869.6 171.275 854.581 168.488C836.815 165.186 818.666 160.76 800.64 155.335C780.039 149.128 759.063 141.455 738.295 132.528C715.238 122.608 691.873 110.902 668.849 97.7324C643.956 83.4879 618.849 67.1793 594.226 49.2626C568.279 30.3717 542.248 9.23859 516.857 -13.5517C490.788 -36.9552 464.75 -62.6852 439.465 -90.0229C389.848 -143.689 341.38 -205.423 295.407 -273.509C255.782 -332.217 217.121 -396.973 180.5 -465.978C114.812 -589.805 81.01 -674.617 80.6763 -675.459L81.9926 -676.325C82.3258 -675.484 116.09 -590.768 181.719 -467.052C218.308 -398.108 256.933 -333.41 296.522 -274.757C342.444 -206.745 390.857 -145.082 440.414 -91.4791C465.666 -64.178 491.669 -38.484 517.701 -15.1122C543.054 7.64258 569.045 28.7446 594.953 47.6056C619.533 65.4942 644.597 81.7733 669.449 95.9933C692.429 109.139 715.75 120.823 738.762 130.722C759.488 139.632 780.419 147.289 800.976 153.483C818.961 158.895 837.067 163.311 854.791 166.604C869.773 169.386 884.827 171.429 899.537 172.677C911.445 173.686 923.406 174.199 935.088 174.199C946.769 174.199 958.73 173.686 970.638 172.677C985.347 171.429 1000.4 169.386 1015.38 166.604C1033.11 163.311 1051.21 158.895 1069.2 153.481C1089.76 147.289 1110.69 139.632 1131.41 130.722C1154.42 120.825 1177.74 109.141 1200.73 95.9933C1225.57 81.7751 1250.64 65.4966 1275.22 47.6056C1301.13 28.7446 1327.12 7.64319 1352.47 -15.1122C1378.51 -38.484 1404.51 -64.178 1429.76 -91.4791C1479.32 -145.083 1527.73 -206.746 1573.65 -274.757C1613.24 -333.41 1651.87 -398.108 1688.46 -467.052C1754.08 -590.768 1787.85 -675.483 1788.18 -676.325L1789.5 -675.459C1789.16 -674.617 1755.36 -589.805 1689.67 -465.978C1653.05 -396.972 1614.39 -332.217 1574.77 -273.508C1528.79 -205.423 1480.33 -143.689 1430.71 -90.0223C1405.42 -62.6846 1379.39 -36.9545 1353.32 -13.551C1327.93 9.23743 1301.9 30.3705 1275.95 49.2633C1251.32 67.1818 1226.22 83.4902 1201.33 97.733C1178.3 110.904 1154.93 122.611 1131.88 132.529C1111.11 141.455 1090.14 149.129 1069.54 155.335C1051.51 160.761 1033.36 165.186 1015.59 168.489C1000.58 171.276 985.483 173.325 970.735 174.576C958.794 175.589 946.801 176.102 935.088 176.102Z" fill="#CCCCCC" fill-opacity="0.2"/>
<path d="M935.087 207.403C922.872 207.403 910.356 206.891 897.885 205.882C882.366 204.621 866.496 202.553 850.714 199.738C831.929 196.384 812.744 191.879 793.693 186.343C771.814 179.984 749.564 172.112 727.561 162.943C703.023 152.714 678.195 140.63 653.767 127.025C627.272 112.265 600.59 95.3544 574.463 76.761C546.879 57.1206 519.256 35.1372 492.364 11.4179C464.737 -12.9562 437.188 -39.7698 410.485 -68.2772C358.129 -124.191 307.18 -188.56 259.056 -259.596C217.68 -320.694 177.458 -388.107 139.506 -459.964C71.7118 -588.373 37.1153 -676.527 36.7734 -677.403L38.0936 -678.258C38.4349 -677.384 72.9934 -589.331 140.728 -461.034C178.646 -389.241 218.832 -321.889 260.168 -260.85C308.241 -189.89 359.132 -125.592 411.428 -69.7424C438.097 -41.2723 465.609 -14.4941 493.198 9.84882C520.052 33.5333 547.633 55.4843 575.177 75.0954C601.262 93.6589 627.9 110.544 654.352 125.277C678.737 138.858 703.521 150.921 728.015 161.132C749.976 170.282 772.182 178.14 794.017 184.488C813.029 190.01 832.172 194.506 850.916 197.853C866.661 200.66 882.495 202.723 897.978 203.981C910.418 204.987 922.903 205.498 935.087 205.498C947.269 205.498 959.754 204.987 972.195 203.981C987.678 202.723 1003.51 200.66 1019.26 197.853C1038 194.506 1057.14 190.01 1076.16 184.488C1097.99 178.14 1120.2 170.282 1142.16 161.132C1166.65 150.921 1191.44 138.858 1215.82 125.277C1242.27 110.543 1268.91 93.6589 1295 75.0954C1322.54 55.4825 1350.12 33.5315 1376.97 9.84698C1404.56 -14.4916 1432.07 -41.2699 1458.75 -69.7424C1511.05 -125.595 1561.94 -189.893 1610.01 -260.85C1651.34 -321.889 1691.53 -389.241 1729.45 -461.034C1797.18 -589.331 1831.74 -677.384 1832.08 -678.258L1833.4 -677.403C1833.06 -676.527 1798.46 -588.373 1730.67 -459.964C1692.72 -388.107 1652.49 -320.694 1611.12 -259.596C1563 -188.564 1512.05 -124.195 1459.69 -68.2772C1432.98 -39.7673 1405.43 -12.9543 1377.81 11.4186C1350.92 35.136 1323.3 57.1212 1295.71 76.761C1269.58 95.3563 1242.9 112.267 1216.41 127.025C1191.98 140.63 1167.15 152.714 1142.61 162.943C1120.61 172.112 1098.36 179.984 1076.48 186.343C1057.43 191.879 1038.24 196.384 1019.46 199.738C1003.68 202.553 987.807 204.621 972.288 205.882C959.817 206.891 947.3 207.403 935.087 207.403Z" fill="#CCCCCC" fill-opacity="0.2"/>
<path d="M935.086 241.207C929.127 241.207 923.034 241.097 916.975 240.879C910.095 240.63 903.102 240.236 896.191 239.706C879.836 238.454 863.108 236.392 846.472 233.581C826.556 230.21 806.222 225.668 786.037 220.08C762.767 213.636 739.102 205.632 715.699 196.29C689.534 185.841 663.084 173.474 637.086 159.533C608.82 144.368 580.405 126.977 552.628 107.841C492.988 66.7316 434.463 16.3563 378.676 -41.8838C323.453 -99.568 269.926 -166.023 219.583 -239.406C176.485 -302.25 134.737 -371.618 95.4978 -445.583C25.8342 -576.953 -9.45142 -667.409 -9.7998 -668.307L-8.47799 -669.158C-8.13015 -668.26 27.1163 -577.908 96.7169 -446.658C135.923 -372.756 177.634 -303.451 220.69 -240.667C270.979 -167.362 324.446 -100.98 379.606 -43.3638C435.32 14.8023 493.767 65.1086 553.324 106.163C581.059 125.27 609.431 142.636 637.653 157.774C663.608 171.693 690.013 184.039 716.136 194.472C739.498 203.796 763.12 211.786 786.347 218.217C806.493 223.795 826.787 228.33 846.663 231.692C863.265 234.5 879.958 236.557 896.278 237.806C903.174 238.334 910.151 238.728 917.016 238.976C929.103 239.41 941.065 239.41 953.155 238.976C960.018 238.728 966.996 238.334 973.892 237.806C990.212 236.557 1006.9 234.5 1023.51 231.692C1043.38 228.331 1063.68 223.796 1083.82 218.217C1107.05 211.786 1130.67 203.796 1154.03 194.472C1180.16 184.039 1206.56 171.693 1232.52 157.774C1260.74 142.635 1289.11 125.269 1316.85 106.163C1376.4 65.108 1434.85 14.8017 1490.56 -43.3644C1545.73 -100.98 1599.19 -167.362 1649.48 -240.667C1692.54 -303.452 1734.25 -372.757 1773.45 -446.659C1843.06 -577.91 1878.3 -668.261 1878.65 -669.159L1879.97 -668.307C1879.62 -667.409 1844.34 -576.954 1774.68 -445.584C1735.43 -371.619 1693.69 -302.25 1650.59 -239.406C1600.25 -166.023 1546.72 -99.5687 1491.5 -41.8845C1435.71 16.3562 1377.18 66.7316 1317.54 107.84C1289.77 126.978 1261.35 144.369 1233.09 159.533C1207.09 173.474 1180.64 185.841 1154.47 196.291C1131.07 205.632 1107.4 213.636 1084.14 220.081C1063.95 225.669 1043.62 230.211 1023.7 233.582C1007.06 236.394 990.336 238.455 973.982 239.707C967.07 240.236 960.077 240.631 953.197 240.88C947.137 241.097 941.045 241.207 935.086 241.207Z" fill="#CCCCCC" fill-opacity="0.2"/>
<path d="M935.089 277.829C928.866 277.829 922.5 277.722 916.168 277.512C908.98 277.272 901.636 276.891 894.34 276.376C886.147 275.797 877.808 275.034 869.555 274.108C860.388 273.08 851.051 271.821 841.801 270.365C820.592 267.024 798.98 262.513 777.567 256.958C752.711 250.507 727.467 242.479 702.54 233.097C674.552 222.56 646.3 210.061 618.569 195.952C588.349 180.574 558.019 162.91 528.423 143.45C464.866 101.641 402.719 50.3096 343.708 -9.11853C285.125 -68.1562 228.399 -136.526 175.107 -212.326C130.659 -275.568 87.8317 -345.072 47.8176 -418.911C-22.5901 -548.875 -58.6469 -641.076 -59.0029 -641.993L-57.6817 -642.845C-57.3268 -641.93 -21.3117 -549.842 49.0291 -420C89.0079 -346.228 131.796 -276.788 176.203 -213.605C229.438 -137.884 286.101 -69.5898 344.619 -10.6168C403.555 48.7355 465.622 100.001 529.096 141.755C558.65 161.187 588.936 178.827 619.112 194.183C646.802 208.271 675.011 220.749 702.954 231.271C727.842 240.636 753.044 248.652 777.859 255.091C799.236 260.638 820.81 265.141 841.981 268.477C851.213 269.929 860.534 271.186 869.684 272.212C877.921 273.136 886.243 273.896 894.421 274.477C901.703 274.99 909.033 275.371 916.206 275.609C928.846 276.029 941.331 276.029 953.971 275.609C961.145 275.371 968.474 274.99 975.756 274.477C983.934 273.896 992.257 273.136 1000.49 272.212C1009.64 271.186 1018.96 269.929 1028.2 268.477C1049.37 265.141 1070.94 260.638 1092.32 255.091C1117.14 248.65 1142.34 240.636 1167.22 231.271C1195.17 220.749 1223.38 208.271 1251.06 194.183C1281.24 178.829 1311.52 161.189 1341.08 141.755C1404.56 100.001 1466.62 48.7355 1525.56 -10.6168C1584.08 -69.5898 1640.74 -137.884 1693.97 -213.605C1738.38 -276.788 1781.17 -346.229 1821.15 -420C1891.49 -549.842 1927.5 -641.93 1927.86 -642.845L1929.18 -641.993C1928.82 -641.077 1892.77 -548.876 1822.36 -418.911C1782.35 -345.072 1739.52 -275.568 1695.07 -212.326C1641.78 -136.526 1585.05 -68.1562 1526.47 -9.11853C1467.46 50.3096 1405.31 101.641 1341.75 143.45C1312.15 162.912 1281.83 180.575 1251.61 195.953C1223.88 210.061 1195.62 222.56 1167.64 233.097C1142.71 242.48 1117.47 250.506 1092.61 256.958C1071.2 262.514 1049.58 267.025 1028.38 270.366C1019.13 271.822 1009.79 273.08 1000.62 274.109C992.369 275.035 984.03 275.797 975.837 276.377C968.541 276.892 961.197 277.273 954.009 277.513C947.677 277.722 941.311 277.829 935.089 277.829Z" fill="#CCCCCC" fill-opacity="0.2"/>
<path d="M935.091 317.634C928.553 317.634 921.889 317.534 915.284 317.338C907.662 317.112 899.93 316.749 892.305 316.263C883.625 315.713 874.805 314.986 866.093 314.105C856.335 313.115 846.422 311.907 836.631 310.51C813.997 307.276 790.956 302.894 768.146 297.485C741.503 291.162 714.495 283.273 687.869 274.035C657.844 263.616 627.581 251.227 597.924 237.214C565.549 221.916 533.106 204.31 501.496 184.883C433.744 143.23 367.703 91.9666 305.206 32.5197C244.25 -25.4993 185.376 -92.6998 130.221 -167.218C84.2534 -229.341 40.0667 -297.637 -1.11326 -370.207C-73.508 -497.829 -110.346 -588.349 -110.709 -589.249L-109.399 -590.128C-109.036 -589.229 -72.2432 -498.825 0.0808258 -371.33C41.2227 -298.826 85.3681 -230.596 131.291 -168.531C186.387 -94.0937 245.196 -26.9658 306.083 30.9877C368.506 90.3627 434.465 141.563 502.132 183.166C533.701 202.567 566.101 220.148 598.432 235.426C628.05 249.42 658.27 261.792 688.253 272.199C714.841 281.421 741.81 289.299 768.413 295.611C791.189 301.015 814.195 305.39 836.795 308.618C846.57 310.012 856.467 311.219 866.21 312.208C874.907 313.088 883.712 313.813 892.379 314.363C899.992 314.846 907.709 315.207 915.319 315.434C928.506 315.828 941.678 315.828 954.864 315.434C962.474 315.207 970.192 314.846 977.804 314.363C986.471 313.813 995.276 313.088 1003.97 312.208C1013.72 311.219 1023.61 310.012 1033.39 308.618C1055.99 305.39 1078.99 301.015 1101.77 295.611C1128.37 289.299 1155.34 281.421 1181.93 272.199C1211.91 261.792 1242.13 249.42 1271.75 235.426C1304.08 220.148 1336.48 202.565 1368.05 183.166C1435.72 141.563 1501.68 90.3627 1564.1 30.9877C1624.99 -26.9658 1683.8 -94.0937 1738.89 -168.531C1784.82 -230.596 1828.96 -298.828 1870.1 -371.33C1942.43 -498.825 1979.22 -589.228 1979.58 -590.128L1980.89 -589.249C1980.53 -588.349 1943.69 -497.829 1871.3 -370.207C1830.12 -297.639 1785.93 -229.343 1739.96 -167.218C1684.8 -92.6998 1625.93 -25.4993 1564.98 32.5197C1502.48 91.9666 1436.44 143.229 1368.69 184.884C1337.08 204.309 1304.63 221.916 1272.26 237.215C1242.6 251.227 1212.34 263.616 1182.31 274.036C1155.69 283.273 1128.68 291.162 1102.04 297.486C1079.22 302.896 1056.18 307.277 1033.55 310.511C1023.76 311.907 1013.85 313.116 1004.09 314.105C995.376 314.987 986.557 315.714 977.876 316.264C970.251 316.749 962.519 317.112 954.898 317.339C948.293 317.534 941.629 317.634 935.091 317.634Z" fill="#CCCCCC" fill-opacity="0.2"/>
<path d="M935.087 361.055C928.182 361.055 921.191 360.965 914.308 360.79C906.263 360.586 898.104 360.258 890.054 359.818C880.873 359.318 871.519 358.654 862.251 357.843C851.871 356.934 841.314 355.815 830.873 354.518C819.296 353.079 807.549 351.38 795.958 349.471C783.222 347.37 770.319 344.958 757.608 342.299C728.95 336.307 699.954 328.799 671.425 319.982C639.123 309.995 606.612 298.083 574.797 284.571C540.045 269.809 505.267 252.778 471.428 233.953C399.276 193.799 329.073 144.245 262.769 86.6705C199.047 31.311 137.708 -32.6376 80.4529 -103.399C32.5497 -162.621 -13.1762 -227.445 -55.4546 -296.075C-127.883 -413.694 -164.311 -495.492 -164.671 -496.305L-163.387 -497.249C-163.029 -496.436 -126.649 -414.752 -54.2975 -297.258C-12.0604 -228.696 33.6204 -163.935 81.4758 -104.773C138.67 -34.0858 199.944 29.7938 263.594 85.0909C329.823 142.6 399.945 192.098 472.013 232.206C505.812 251.008 540.549 268.019 575.259 282.763C607.036 296.256 639.507 308.156 671.77 318.13C700.263 326.936 729.223 334.435 757.845 340.422C770.54 343.075 783.425 345.485 796.145 347.582C807.722 349.49 819.453 351.185 831.015 352.623C841.442 353.918 851.986 355.036 862.351 355.943C871.607 356.755 880.948 357.418 890.116 357.916C898.156 358.357 906.304 358.683 914.337 358.887C928.084 359.236 942.088 359.236 955.837 358.887C963.869 358.682 972.018 358.357 980.058 357.916C989.226 357.419 998.567 356.755 1007.82 355.943C1018.19 355.036 1028.73 353.919 1039.16 352.623C1050.72 351.185 1062.45 349.49 1074.03 347.582C1086.75 345.485 1099.64 343.075 1112.33 340.422C1140.95 334.435 1169.91 326.936 1198.4 318.13C1230.67 308.156 1263.14 296.256 1294.91 282.763C1329.63 268.018 1364.36 251.008 1398.16 232.206C1470.23 192.098 1540.35 142.6 1606.58 85.0909C1670.23 29.7938 1731.5 -34.0858 1788.7 -104.774C1836.56 -163.936 1882.24 -228.697 1924.47 -297.257C1996.82 -414.751 2033.2 -496.435 2033.56 -497.248L2034.85 -496.304C2034.48 -495.491 1998.06 -413.693 1925.63 -296.074C1883.35 -227.448 1837.63 -162.622 1789.72 -103.4C1732.47 -32.6376 1671.13 31.311 1607.41 86.6693C1541.1 144.246 1470.9 193.799 1398.75 233.954C1364.91 252.778 1330.13 269.81 1295.38 284.571C1263.56 298.083 1231.05 309.996 1198.75 319.982C1170.22 328.799 1141.22 336.307 1112.57 342.3C1099.85 344.959 1086.95 347.37 1074.22 349.471C1062.62 351.381 1050.88 353.08 1039.3 354.519C1028.86 355.815 1018.3 356.935 1007.92 357.844C998.655 358.654 989.299 359.318 980.12 359.818C972.069 360.259 963.909 360.586 955.865 360.791C948.982 360.965 941.991 361.055 935.087 361.055Z" fill="#CCCCCC" fill-opacity="0.2"/>
<path d="M935.09 408.612C927.793 408.612 920.441 408.539 913.239 408.394C904.719 408.223 896.081 407.948 887.563 407.578C877.733 407.148 867.778 406.581 857.975 405.889C846.852 405.105 835.57 404.136 824.441 403.011C811.986 401.751 799.389 400.261 786.999 398.582C773.305 396.727 759.434 394.586 745.77 392.218C714.808 386.848 683.566 380.078 652.912 372.1C618.069 363.026 583.035 352.141 548.787 339.749C511.463 326.241 474.105 310.592 437.75 293.238C361.233 256.698 286.624 211.445 215.995 158.737C65.2014 46.1338 -45.5623 -85.5223 -111.927 -176.143C-140.586 -215.29 -167.199 -254.855 -193.286 -297.094C-211.065 -325.884 -220.35 -342.276 -220.441 -342.44L-219.247 -343.56C-219.155 -343.398 -209.886 -327.034 -192.13 -298.281C-166.069 -256.083 -139.483 -216.559 -110.852 -177.449C-44.5551 -86.9229 66.0955 44.6019 216.735 157.089C287.292 209.743 361.825 254.95 438.264 291.452C474.581 308.789 511.901 324.42 549.186 337.916C583.399 350.295 618.396 361.169 653.205 370.233C683.828 378.204 715.037 384.967 745.967 390.331C759.617 392.698 773.474 394.836 787.153 396.69C799.531 398.365 812.115 399.855 824.557 401.115C835.673 402.239 846.945 403.205 858.056 403.99C867.849 404.679 877.794 405.247 887.613 405.674C896.122 406.044 904.752 406.32 913.262 406.491C927.651 406.781 942.526 406.781 956.917 406.491C965.427 406.32 974.056 406.044 982.565 405.674C992.385 405.247 1002.33 404.679 1012.12 403.99C1023.23 403.205 1034.51 402.238 1045.62 401.115C1058.06 399.855 1070.65 398.365 1083.03 396.69C1096.71 394.836 1110.57 392.696 1124.21 390.331C1155.14 384.967 1186.35 378.204 1216.97 370.233C1251.78 361.169 1286.78 350.295 1320.99 337.916C1358.28 324.42 1395.6 308.789 1431.92 291.452C1508.36 254.95 1582.89 209.743 1653.44 157.089C1804.08 44.6019 1914.73 -86.9229 1981.03 -177.449C2009.66 -216.558 2036.25 -256.082 2062.31 -298.28C2080.07 -327.033 2089.33 -343.398 2089.43 -343.559L2090.62 -342.438C2090.53 -342.276 2081.24 -325.884 2063.46 -297.093C2037.38 -254.855 2010.77 -215.29 1982.11 -176.143C1915.74 -85.5223 1804.98 46.1344 1654.19 158.737C1583.56 211.445 1508.95 256.698 1432.43 293.238C1396.07 310.593 1358.72 326.241 1321.39 339.749C1287.14 352.142 1252.11 363.026 1217.27 372.1C1186.61 380.078 1155.37 386.848 1124.41 392.218C1110.75 394.585 1096.88 396.727 1083.18 398.582C1070.79 400.261 1058.19 401.751 1045.74 403.011C1034.61 404.136 1023.33 405.104 1012.2 405.889C1002.4 406.581 992.446 407.148 982.615 407.578C974.097 407.948 965.459 408.223 956.94 408.394C949.738 408.539 942.385 408.612 935.09 408.612Z" fill="#CCCCCC" fill-opacity="0.2"/>
<path d="M935.09 460.924C927.871 460.924 920.19 460.88 912.051 460.77C902.982 460.649 893.809 460.45 884.785 460.182C874.257 459.868 863.624 459.449 853.182 458.936C841.13 458.339 829.023 457.605 817.203 456.754C803.808 455.789 790.244 454.634 776.887 453.319C762.046 451.859 747.073 450.166 732.382 448.286C698.809 443.984 665.017 438.491 631.942 431.959C594.321 424.528 556.451 415.517 519.384 405.176C479.387 394.016 439.185 380.992 399.894 366.462C319.963 336.899 240.753 300.015 164.464 256.835C45.6827 189.58 -67.192 106.722 -171.025 10.5623C-198.807 -15.1709 -224.979 -40.9101 -251.035 -68.125C-268.276 -86.1364 -277.294 -96.1322 -277.382 -96.2311L-276.418 -97.6738C-276.329 -97.5749 -267.326 -87.5962 -250.104 -69.605C-224.071 -42.4127 -197.921 -16.6936 -170.162 9.01509C-66.4137 105.099 46.3713 187.89 165.058 255.09C241.286 298.237 320.434 335.093 400.303 364.632C439.562 379.148 479.732 392.164 519.697 403.316C556.735 413.646 594.575 422.651 632.165 430.077C665.214 436.604 698.982 442.093 732.527 446.39C747.207 448.269 762.17 449.963 776.999 451.423C790.346 452.734 803.9 453.888 817.284 454.853C829.098 455.705 841.195 456.438 853.238 457.033C863.673 457.546 874.299 457.966 884.819 458.279C893.836 458.548 903.004 458.745 912.067 458.866C920.201 458.976 927.875 459.02 935.09 459.02C942.304 459.02 949.979 458.976 958.113 458.866C967.176 458.745 976.344 458.548 985.361 458.279C995.88 457.966 1006.51 457.546 1016.94 457.033C1028.99 456.438 1041.08 455.705 1052.9 454.853C1066.28 453.888 1079.83 452.734 1093.18 451.423C1108.01 449.963 1122.97 448.27 1137.65 446.39C1171.2 442.093 1204.96 436.604 1238.01 430.077C1275.61 422.651 1313.45 413.646 1350.48 403.316C1390.45 392.164 1430.62 379.148 1469.88 364.632C1549.75 335.093 1628.89 298.237 1705.12 255.09C1823.81 187.891 1936.59 105.099 2040.34 9.01509C2068.1 -16.6942 2094.25 -42.4127 2120.28 -69.605C2137.51 -87.5962 2146.51 -97.5749 2146.6 -97.6738L2147.56 -96.2311C2147.47 -96.1322 2138.46 -86.1364 2121.22 -68.125C2095.16 -40.9095 2068.99 -15.1709 2041.21 10.5623C1937.37 106.722 1824.5 189.58 1705.72 256.835C1629.43 300.014 1550.22 336.898 1470.29 366.462C1431 380.991 1390.79 394.015 1350.8 405.175C1313.73 415.515 1275.86 424.527 1238.24 431.959C1205.16 438.491 1171.37 443.983 1137.8 448.286C1123.11 450.166 1108.13 451.859 1093.29 453.318C1079.94 454.633 1066.37 455.787 1052.98 456.753C1041.16 457.604 1029.05 458.339 1017 458.935C1006.56 459.449 995.924 459.867 985.397 460.182C976.373 460.449 967.199 460.648 958.131 460.769C949.989 460.879 942.309 460.924 935.09 460.924Z" fill="#CCCCCC" fill-opacity="0.2"/>
<path d="M935.089 518.74C927.479 518.74 919.358 518.724 910.726 518.679C901.566 518.63 891.877 518.552 881.666 518.422C870.393 518.283 858.991 518.084 847.775 517.831C834.696 517.535 821.652 517.158 809.003 516.71C794.353 516.19 779.682 515.553 765.399 514.821C749.228 513.988 732.99 513.001 717.137 511.885C680.582 509.313 643.877 505.899 608.042 501.736C567.587 497.034 526.522 491.183 485.985 484.34C443.907 477.237 400.584 468.761 357.217 459.148C281.953 442.464 202.703 421.562 107.814 393.367C80.1979 385.165 53.8546 377.27 28.7983 369.761C-83.7013 336.043 -172.561 309.41 -232.034 298.795C-299.795 286.756 -333.94 290.649 -334.276 290.694L-334.415 288.797C-334.075 288.76 -299.788 284.833 -231.833 296.91C-172.292 307.536 -83.4035 334.176 29.1331 367.907C54.1883 375.417 80.5305 383.312 108.145 391.512C203.007 419.699 282.231 440.595 357.467 457.271C400.814 466.882 444.118 475.354 486.177 482.452C526.694 489.291 567.739 495.142 608.174 499.841C643.991 504.002 680.679 507.415 717.217 509.986C733.062 511.099 749.292 512.086 765.457 512.917C779.734 513.65 794.398 514.286 809.042 514.807C821.686 515.255 834.726 515.632 847.799 515.928C859.012 516.181 870.41 516.38 881.679 516.519C891.887 516.649 901.573 516.728 910.73 516.776C919.361 516.82 927.479 516.837 935.088 516.837C942.696 516.837 950.814 516.82 959.444 516.776C968.603 516.728 978.287 516.649 988.497 516.519C999.767 516.38 1011.17 516.181 1022.38 515.928C1035.45 515.632 1048.49 515.255 1061.13 514.807C1075.78 514.286 1090.44 513.65 1104.72 512.917C1120.88 512.086 1137.11 511.099 1152.96 509.986C1189.5 507.416 1226.18 504.002 1262 499.841C1302.44 495.142 1343.48 489.29 1384 482.452C1426.06 475.353 1469.36 466.882 1512.71 457.271C1587.94 440.595 1667.17 419.699 1762.03 391.512C1789.64 383.312 1815.98 375.417 1841.04 367.907C1953.58 334.177 2042.47 307.536 2102.01 296.91C2169.97 284.835 2204.25 288.763 2204.59 288.797L2204.45 290.694C2204.11 290.651 2169.97 286.756 2102.21 298.795C2042.73 309.41 1953.87 336.043 1841.37 369.762C1816.32 377.272 1789.98 385.167 1762.36 393.367C1667.47 421.562 1588.22 442.464 1512.96 459.148C1469.59 468.761 1426.27 477.238 1384.19 484.34C1343.65 491.183 1302.59 497.034 1262.13 501.736C1226.3 505.899 1189.59 509.313 1153.04 511.885C1137.18 513 1120.94 513.988 1104.78 514.821C1090.49 515.553 1075.82 516.189 1061.17 516.71C1048.53 517.158 1035.48 517.536 1022.4 517.831C1011.19 518.084 999.784 518.283 988.51 518.422C978.298 518.552 968.61 518.63 959.449 518.679C950.82 518.724 942.699 518.74 935.089 518.74Z" fill="#CCCCCC" fill-opacity="0.2"/>
<path d="M2260.54 894.13C2260.25 893.343 2230.52 814.549 2163.38 741.657C2108.86 682.533 2005.79 607.81 1824.4 587.58C1741.55 578.434 1648.93 578.363 1561.19 579.639C1527.29 580.141 1492.41 580.885 1458.67 581.604C1446.56 581.863 1434.43 582.121 1422.31 582.37C1370.03 583.448 1327.85 584.127 1289.54 584.509C1268.85 584.715 1248.11 584.849 1227.92 584.907C1209.09 584.959 1189.78 584.957 1170.52 584.886C1152.48 584.825 1134.93 584.712 1117.92 584.57C1101.57 584.436 1085.76 584.275 1070.53 584.109L1028.54 583.643C1015.78 583.501 1003.6 583.374 992.032 583.271C981.079 583.174 970.711 583.098 960.934 583.048C951.748 583.003 943.134 582.979 935.087 582.979C927.041 582.979 918.425 583.002 909.24 583.048C899.462 583.098 889.095 583.174 878.142 583.271C866.569 583.374 854.395 583.502 841.632 583.643L799.648 584.109C784.416 584.275 768.607 584.437 752.25 584.57C735.243 584.712 717.698 584.825 699.656 584.886C680.398 584.957 661.086 584.961 642.256 584.907C622.061 584.849 601.326 584.715 580.629 584.509C542.328 584.128 500.142 583.449 447.867 582.37C435.742 582.121 423.62 581.863 411.513 581.604C377.772 580.885 342.882 580.141 308.985 579.639C221.244 578.36 128.627 578.436 45.7722 587.58C-135.613 607.81 -238.683 682.533 -293.208 741.657C-360.346 814.549 -390.074 893.342 -390.366 894.13L-391.7 893.307C-391.407 892.517 -361.556 813.372 -294.16 740.202C-239.471 680.899 -136.126 605.957 45.6461 585.685C128.565 576.531 221.226 576.453 309.001 577.736C342.903 578.238 377.794 578.982 411.537 579.701C423.644 579.959 435.765 580.218 447.889 580.467C500.161 581.546 542.343 582.224 580.641 582.605C601.335 582.812 622.067 582.946 642.26 583.004C661.088 583.059 680.397 583.054 699.652 582.984C717.693 582.922 735.235 582.809 752.241 582.667C768.598 582.533 784.405 582.372 799.636 582.206L841.62 581.739C854.384 581.598 866.558 581.472 878.132 581.367C889.087 581.271 899.455 581.195 909.234 581.144C918.422 581.1 927.04 581.075 935.088 581.075C943.135 581.075 951.752 581.1 960.941 581.144C970.719 581.195 981.088 581.271 992.043 581.367C1003.62 581.471 1015.79 581.598 1028.56 581.739L1070.54 582.206C1085.77 582.372 1101.58 582.533 1117.93 582.667C1134.94 582.809 1152.48 582.922 1170.52 582.984C1189.78 583.056 1209.09 583.06 1227.91 583.004C1248.11 582.946 1268.84 582.813 1289.53 582.605C1327.83 582.224 1370.01 581.546 1422.29 580.467C1434.41 580.218 1446.53 579.959 1458.64 579.701C1492.38 578.982 1527.27 578.238 1561.17 577.736C1648.95 576.462 1741.61 576.529 1824.53 585.685C2006.3 605.957 2109.65 680.9 2164.33 740.2C2231.73 813.372 2261.58 892.518 2261.87 893.307L2260.54 894.13Z" fill="#CCCCCC" fill-opacity="0.2"/>
<path d="M-87.6752 926.093C-66.6218 905.704 -44.6777 886.926 -21.8221 869.931C17.6822 840.592 61.914 814.669 109.645 792.88C153.463 772.896 200.809 755.879 254.386 740.857C299.485 728.227 348.475 717.158 404.156 707.018C448.395 698.974 495.767 691.693 548.975 684.757C570.883 681.905 593.604 679.142 616.506 676.548C637.441 674.178 658.62 671.931 679.454 669.871C698.929 667.948 718.318 666.167 737.084 664.575C754.786 663.077 772.217 661.725 788.894 660.557C804.646 659.46 820.027 658.506 834.606 657.724C848.165 656.997 861.467 656.396 874.139 655.939C885.615 655.524 896.861 655.218 907.569 655.026C916.992 654.859 926.252 654.773 935.092 654.773C943.932 654.773 953.192 654.859 962.615 655.026C973.322 655.217 984.569 655.524 996.044 655.939C1008.72 656.397 1022.02 656.997 1035.58 657.724C1050.16 658.506 1065.54 659.46 1081.29 660.557C1097.97 661.725 1115.4 663.077 1133.1 664.575C1151.87 666.167 1171.25 667.948 1190.73 669.871C1211.57 671.931 1232.74 674.177 1253.68 676.548C1276.58 679.142 1299.3 681.905 1321.21 684.757C1374.42 691.693 1421.79 698.974 1466.03 707.018C1521.71 717.159 1570.7 728.227 1615.8 740.857C1669.38 755.879 1716.72 772.896 1760.54 792.88C1808.27 814.67 1852.5 840.595 1892.01 869.931C1914.86 886.926 1936.81 905.704 1957.86 926.093H1960.33C1938.75 905.064 1916.22 885.739 1892.75 868.28C1853.16 838.887 1808.85 812.914 1761.03 791.084C1717.16 771.073 1669.75 754.036 1616.11 738.998C1570.98 726.356 1521.95 715.278 1466.24 705.131C1421.98 697.084 1374.59 689.799 1321.36 682.864C1299.44 680.01 1276.72 677.247 1253.81 674.651C1232.87 672.279 1211.69 670.033 1190.84 667.974C1171.36 666.05 1151.97 664.267 1133.2 662.675C1115.49 661.174 1098.05 659.823 1081.37 658.657C1065.61 657.558 1050.23 656.604 1035.64 655.821C1022.07 655.094 1008.77 654.494 996.086 654.035C984.604 653.622 973.35 653.313 962.635 653.122C953.206 652.954 943.939 652.869 935.092 652.869C926.245 652.869 916.978 652.954 907.549 653.122C896.834 653.313 885.58 653.622 874.098 654.035C861.418 654.494 848.111 655.095 834.546 655.821C819.959 656.604 804.572 657.558 788.813 658.657C772.131 659.823 754.693 661.174 736.986 662.675C718.215 664.267 698.821 666.05 679.341 667.974C658.501 670.033 637.316 672.279 616.376 674.651C593.467 677.247 570.739 680.01 548.825 682.864C495.596 689.8 448.207 697.084 403.948 705.131C348.23 715.278 299.206 726.356 254.071 738.998C200.431 754.036 153.028 771.073 109.15 791.084C61.3346 812.912 17.0208 838.886 -22.5624 868.282C-46.0397 885.74 -68.5627 905.064 -90.1416 926.093H-87.6752Z" fill="#CCCCCC" fill-opacity="0.2"/>
<path d="M249.171 926.093C256.957 921.349 264.804 916.673 272.746 912.129C298.451 897.43 325.719 883.36 353.79 870.315C379.362 858.434 406.383 847.038 434.1 836.439C459.104 826.882 485.361 817.716 512.138 809.193C536.244 801.523 561.255 794.223 586.475 787.496C609.298 781.412 632.651 775.698 655.885 770.514C677.057 765.793 698.431 761.446 719.415 757.594C738.649 754.066 757.823 750.905 776.405 748.2C793.418 745.723 810.267 743.58 826.486 741.826C841.142 740.246 855.629 738.945 869.542 737.961C881.843 737.095 893.996 736.453 905.664 736.053C915.659 735.713 925.56 735.54 935.093 735.54C944.624 735.54 954.526 735.713 964.521 736.053C976.189 736.453 988.342 737.094 1000.64 737.961C1014.56 738.945 1029.04 740.246 1043.7 741.826C1059.92 743.58 1076.77 745.723 1093.78 748.2C1112.36 750.905 1131.54 754.066 1150.77 757.594C1171.75 761.446 1193.13 765.794 1214.3 770.514C1237.53 775.698 1260.89 781.412 1283.71 787.496C1308.93 794.222 1333.94 801.522 1358.05 809.193C1384.82 817.716 1411.08 826.882 1436.09 836.439C1463.8 847.037 1490.82 858.434 1516.4 870.315C1544.47 883.362 1571.74 897.432 1597.44 912.129C1605.38 916.673 1613.23 921.349 1621.01 926.093H1624.42C1615.71 920.75 1606.94 915.482 1598.04 910.389C1572.3 895.672 1545 881.586 1516.9 868.522C1491.3 856.63 1464.25 845.221 1436.5 834.614C1411.48 825.049 1385.2 815.873 1358.4 807.344C1334.27 799.667 1309.24 792.363 1284.01 785.633C1261.17 779.543 1237.8 773.825 1214.55 768.638C1193.37 763.914 1171.98 759.563 1150.98 755.709C1131.73 752.18 1112.54 749.017 1093.95 746.308C1076.92 743.829 1060.05 741.684 1043.82 739.93C1029.15 738.348 1014.65 737.044 1000.72 736.061C988.408 735.193 976.241 734.549 964.56 734.149C954.552 733.809 944.637 733.636 935.092 733.636C925.546 733.636 915.632 733.809 905.625 734.149C893.943 734.549 881.776 735.193 869.461 736.061C855.532 737.044 841.033 738.348 826.361 739.93C810.129 741.684 793.265 743.829 776.238 746.308C757.642 749.017 738.455 752.18 719.206 755.709C698.208 759.563 676.819 763.914 655.632 768.638C632.383 773.826 609.014 779.544 586.174 785.633C560.936 792.363 535.907 799.668 511.783 807.344C484.983 815.873 458.705 825.049 433.679 834.614C405.934 845.221 378.887 856.63 353.288 868.522C325.183 881.584 297.883 895.671 272.146 910.389C263.244 915.482 254.471 920.75 245.768 926.093H249.171Z" fill="#CCCCCC" fill-opacity="0.2"/>
</g>
</g>
</svg>
