<svg width="15" height="37" viewBox="0 0 15 37" fill="none" xmlns="http://www.w3.org/2000/svg">
<path d="M7.78042 36.3584L0.404616 32.0182L0.380756 30.1894L0.4564 30.0571L7.75424 34.3514L14.9137 29.9983L14.9398 32.0053L7.78042 36.3584Z" fill="#CCCCCC" fill-opacity="0.2"/>
<path d="M7.72958 32.2178L0.353773 27.8776L0.32991 26.0485L0.405558 25.9165L7.7034 30.2108L14.8628 25.8576L14.889 27.8646L7.72958 32.2178Z" fill="#CCCCCC" fill-opacity="0.2"/>
<path d="M7.67477 28.0777L0.298964 23.7374L0.275104 21.9086L0.350748 21.7764L7.64859 26.0709L14.808 21.7178L14.8342 23.7245L7.67477 28.0777Z" fill="#CCCCCC" fill-opacity="0.2"/>
<path d="M7.61996 23.9375L0.244154 19.5973L0.220291 17.7682L0.295939 17.6362L7.59378 21.9308L14.7532 17.5774L14.7794 19.5844L7.61996 23.9375Z" fill="#CCCCCC" fill-opacity="0.2"/>
<path d="M7.56912 19.7969L0.193316 15.457L0.169452 13.6279L0.2451 13.4959L7.54294 17.7902L14.7024 13.437L14.7285 15.444L7.56912 19.7969Z" fill="#CCCCCC" fill-opacity="0.2"/>
<path d="M7.5104 15.6558L0.1346 11.3158L0.110736 9.48674L0.186381 9.35448L7.48422 13.6488L14.6436 9.29562L14.6698 11.3029L7.5104 15.6558Z" fill="#CCCCCC" fill-opacity="0.2"/>
<path d="M7.45956 11.5166L0.0837537 7.1764L0.0598938 5.34758L0.135538 5.21532L7.43338 9.50991L14.5928 5.15647L14.619 7.16347L7.45956 11.5166Z" fill="#CCCCCC" fill-opacity="0.2"/>
<path d="M7.40475 7.37503L0.0289441 3.0348L0.00508421 1.20598L0.0807326 1.074L7.37857 5.36831L14.538 1.01514L14.5642 3.02187L7.40475 7.37503Z" fill="#CCCCCC" fill-opacity="0.2"/>
</svg>
